{
	"patcher" : 	{
		"fileversion" : 1,
		"rect" : [ 569.0, 253.0, 377.0, 476.0 ],
		"bglocked" : 0,
		"defrect" : [ 569.0, 253.0, 377.0, 476.0 ],
		"openrect" : [ 0.0, 0.0, 0.0, 0.0 ],
		"openinpresentation" : 1,
		"default_fontsize" : 12.0,
		"default_fontface" : 0,
		"default_fontname" : "Arial",
		"gridonopen" : 0,
		"gridsize" : [ 15.0, 15.0 ],
		"gridsnaponopen" : 0,
		"toolbarvisible" : 1,
		"boxanimatetime" : 200,
		"imprint" : 0,
		"enablehscroll" : 1,
		"enablevscroll" : 1,
		"devicewidth" : 0.0,
		"boxes" : [ 			{
				"box" : 				{
					"maxclass" : "comment",
					"text" : "Almost this entire patch is borrowed from the \"equal distance crossfade\" section of msp tutorial 22. The only addition is the dial control.",
					"linecount" : 7,
					"fontsize" : 12.0,
					"id" : "obj-3",
					"numinlets" : 1,
					"patching_rect" : [ 15.0, 15.0, 132.0, 103.0 ],
					"numoutlets" : 0,
					"fontname" : "Arial"
				}

			}
, 			{
				"box" : 				{
					"maxclass" : "message",
					"text" : "64",
					"fontsize" : 12.0,
					"id" : "obj-25",
					"numinlets" : 2,
					"patching_rect" : [ 195.0, 45.0, 32.5, 18.0 ],
					"numoutlets" : 1,
					"fontname" : "Arial",
					"outlettype" : [ "" ]
				}

			}
, 			{
				"box" : 				{
					"maxclass" : "newobj",
					"text" : "loadbang",
					"fontsize" : 12.0,
					"id" : "obj-23",
					"numinlets" : 1,
					"patching_rect" : [ 195.0, 15.0, 60.0, 20.0 ],
					"numoutlets" : 1,
					"fontname" : "Arial",
					"outlettype" : [ "bang" ]
				}

			}
, 			{
				"box" : 				{
					"maxclass" : "newobj",
					"text" : "*~ 1.",
					"fontsize" : 12.0,
					"id" : "obj-22",
					"numinlets" : 2,
					"patching_rect" : [ 180.0, 404.0, 49.0, 20.0 ],
					"numoutlets" : 1,
					"fontname" : "Arial",
					"outlettype" : [ "signal" ]
				}

			}
, 			{
				"box" : 				{
					"maxclass" : "newobj",
					"text" : "*~ 1.",
					"fontsize" : 12.0,
					"id" : "obj-21",
					"numinlets" : 2,
					"patching_rect" : [ 105.0, 404.0, 54.0, 20.0 ],
					"numoutlets" : 1,
					"fontname" : "Arial",
					"outlettype" : [ "signal" ]
				}

			}
, 			{
				"box" : 				{
					"maxclass" : "inlet",
					"id" : "obj-20",
					"numinlets" : 0,
					"patching_rect" : [ 105.0, 359.0, 25.0, 25.0 ],
					"numoutlets" : 1,
					"outlettype" : [ "" ],
					"comment" : "Audio"
				}

			}
, 			{
				"box" : 				{
					"maxclass" : "dial",
					"presentation_rect" : [ 2.0, 2.0, 56.0, 56.0 ],
					"id" : "obj-17",
					"numinlets" : 1,
					"patching_rect" : [ 165.0, 90.0, 40.0, 40.0 ],
					"presentation" : 1,
					"numoutlets" : 1,
					"outlettype" : [ "float" ]
				}

			}
, 			{
				"box" : 				{
					"maxclass" : "outlet",
					"id" : "obj-4",
					"numinlets" : 1,
					"patching_rect" : [ 180.0, 434.0, 25.0, 25.0 ],
					"numoutlets" : 0,
					"comment" : "(signal) right channel"
				}

			}
, 			{
				"box" : 				{
					"maxclass" : "outlet",
					"id" : "obj-5",
					"numinlets" : 1,
					"patching_rect" : [ 105.0, 434.0, 25.0, 25.0 ],
					"numoutlets" : 0,
					"comment" : "(signal) left channel"
				}

			}
, 			{
				"box" : 				{
					"maxclass" : "inlet",
					"id" : "obj-6",
					"numinlets" : 0,
					"patching_rect" : [ 165.0, 45.0, 25.0, 25.0 ],
					"numoutlets" : 1,
					"outlettype" : [ "" ],
					"comment" : "Pan value 0 = left, 127 = right"
				}

			}
, 			{
				"box" : 				{
					"maxclass" : "newobj",
					"text" : "cycle~",
					"fontsize" : 11.595187,
					"id" : "obj-7",
					"numinlets" : 2,
					"patching_rect" : [ 140.0, 359.0, 44.0, 20.0 ],
					"numoutlets" : 1,
					"fontname" : "Arial",
					"outlettype" : [ "signal" ]
				}

			}
, 			{
				"box" : 				{
					"maxclass" : "flonum",
					"bgcolor" : [ 0.866667, 0.866667, 0.866667, 1.0 ],
					"fontsize" : 11.595187,
					"id" : "obj-8",
					"numinlets" : 1,
					"patching_rect" : [ 165.0, 225.0, 66.0, 20.0 ],
					"numoutlets" : 2,
					"htextcolor" : [ 0.870588, 0.870588, 0.870588, 1.0 ],
					"fontname" : "Arial",
					"cantchange" : 1,
					"outlettype" : [ "float", "bang" ],
					"triscale" : 0.9
				}

			}
, 			{
				"box" : 				{
					"maxclass" : "newobj",
					"text" : "split 0 64",
					"fontsize" : 11.595187,
					"id" : "obj-9",
					"numinlets" : 3,
					"patching_rect" : [ 165.0, 149.0, 77.0, 20.0 ],
					"numoutlets" : 2,
					"fontname" : "Arial",
					"outlettype" : [ "int", "int" ]
				}

			}
, 			{
				"box" : 				{
					"maxclass" : "newobj",
					"text" : "line~ 0.125",
					"fontsize" : 11.595187,
					"id" : "obj-10",
					"numinlets" : 2,
					"patching_rect" : [ 165.0, 284.0, 68.0, 20.0 ],
					"numoutlets" : 2,
					"fontname" : "Arial",
					"outlettype" : [ "signal", "bang" ]
				}

			}
, 			{
				"box" : 				{
					"maxclass" : "message",
					"text" : "$1 20",
					"fontsize" : 11.595187,
					"id" : "obj-11",
					"numinlets" : 2,
					"patching_rect" : [ 165.0, 255.0, 40.0, 18.0 ],
					"numoutlets" : 1,
					"fontname" : "Arial",
					"outlettype" : [ "" ]
				}

			}
, 			{
				"box" : 				{
					"maxclass" : "newobj",
					"text" : "/ 512.",
					"fontsize" : 11.595187,
					"id" : "obj-12",
					"numinlets" : 2,
					"patching_rect" : [ 165.0, 179.0, 40.0, 20.0 ],
					"numoutlets" : 1,
					"fontname" : "Arial",
					"outlettype" : [ "float" ]
				}

			}
, 			{
				"box" : 				{
					"maxclass" : "newobj",
					"text" : "+~ 0.75",
					"fontsize" : 11.595187,
					"id" : "obj-13",
					"numinlets" : 2,
					"patching_rect" : [ 235.0, 329.0, 50.0, 20.0 ],
					"numoutlets" : 1,
					"fontname" : "Arial",
					"outlettype" : [ "signal" ]
				}

			}
, 			{
				"box" : 				{
					"maxclass" : "newobj",
					"text" : "cycle~",
					"fontsize" : 11.595187,
					"id" : "obj-14",
					"numinlets" : 2,
					"patching_rect" : [ 210.0, 359.0, 44.0, 20.0 ],
					"numoutlets" : 1,
					"fontname" : "Arial",
					"outlettype" : [ "signal" ]
				}

			}
, 			{
				"box" : 				{
					"maxclass" : "newobj",
					"text" : "expr ($i1-64)/504.+0.125",
					"fontsize" : 11.595187,
					"id" : "obj-15",
					"numinlets" : 1,
					"patching_rect" : [ 223.0, 179.0, 138.0, 20.0 ],
					"numoutlets" : 1,
					"fontname" : "Arial",
					"outlettype" : [ "" ]
				}

			}
, 			{
				"box" : 				{
					"maxclass" : "panel",
					"border" : 2,
					"bgcolor" : [ 0.858824, 0.858824, 0.858824, 1.0 ],
					"presentation_rect" : [ 0.0, 0.0, 60.0, 60.0 ],
					"id" : "obj-1",
					"numinlets" : 1,
					"patching_rect" : [ 15.0, 15.0, 135.0, 105.0 ],
					"presentation" : 1,
					"bordercolor" : [ 0.537255, 0.537255, 0.537255, 1.0 ],
					"numoutlets" : 0
				}

			}
 ],
		"lines" : [ 			{
				"patchline" : 				{
					"source" : [ "obj-9", 0 ],
					"destination" : [ "obj-12", 0 ],
					"hidden" : 0,
					"midpoints" : [  ]
				}

			}
, 			{
				"patchline" : 				{
					"source" : [ "obj-12", 0 ],
					"destination" : [ "obj-8", 0 ],
					"hidden" : 0,
					"midpoints" : [  ]
				}

			}
, 			{
				"patchline" : 				{
					"source" : [ "obj-15", 0 ],
					"destination" : [ "obj-8", 0 ],
					"hidden" : 0,
					"midpoints" : [ 232.5, 211.0, 174.5, 211.0 ]
				}

			}
, 			{
				"patchline" : 				{
					"source" : [ "obj-8", 0 ],
					"destination" : [ "obj-11", 0 ],
					"hidden" : 0,
					"midpoints" : [  ]
				}

			}
, 			{
				"patchline" : 				{
					"source" : [ "obj-11", 0 ],
					"destination" : [ "obj-10", 0 ],
					"hidden" : 0,
					"midpoints" : [  ]
				}

			}
, 			{
				"patchline" : 				{
					"source" : [ "obj-10", 0 ],
					"destination" : [ "obj-7", 1 ],
					"hidden" : 0,
					"midpoints" : [  ]
				}

			}
, 			{
				"patchline" : 				{
					"source" : [ "obj-9", 1 ],
					"destination" : [ "obj-15", 0 ],
					"hidden" : 0,
					"midpoints" : [  ]
				}

			}
, 			{
				"patchline" : 				{
					"source" : [ "obj-10", 0 ],
					"destination" : [ "obj-13", 0 ],
					"hidden" : 0,
					"midpoints" : [ 174.5, 316.0, 244.5, 316.0 ]
				}

			}
, 			{
				"patchline" : 				{
					"source" : [ "obj-13", 0 ],
					"destination" : [ "obj-14", 1 ],
					"hidden" : 0,
					"midpoints" : [  ]
				}

			}
, 			{
				"patchline" : 				{
					"source" : [ "obj-6", 0 ],
					"destination" : [ "obj-17", 0 ],
					"hidden" : 0,
					"midpoints" : [  ]
				}

			}
, 			{
				"patchline" : 				{
					"source" : [ "obj-17", 0 ],
					"destination" : [ "obj-9", 0 ],
					"hidden" : 0,
					"midpoints" : [  ]
				}

			}
, 			{
				"patchline" : 				{
					"source" : [ "obj-14", 0 ],
					"destination" : [ "obj-22", 1 ],
					"hidden" : 0,
					"midpoints" : [  ]
				}

			}
, 			{
				"patchline" : 				{
					"source" : [ "obj-7", 0 ],
					"destination" : [ "obj-21", 1 ],
					"hidden" : 0,
					"midpoints" : [  ]
				}

			}
, 			{
				"patchline" : 				{
					"source" : [ "obj-20", 0 ],
					"destination" : [ "obj-22", 0 ],
					"hidden" : 0,
					"midpoints" : [ 114.5, 392.5, 189.5, 392.5 ]
				}

			}
, 			{
				"patchline" : 				{
					"source" : [ "obj-20", 0 ],
					"destination" : [ "obj-21", 0 ],
					"hidden" : 0,
					"midpoints" : [ 114.5, 392.5, 114.5, 392.5 ]
				}

			}
, 			{
				"patchline" : 				{
					"source" : [ "obj-21", 0 ],
					"destination" : [ "obj-5", 0 ],
					"hidden" : 0,
					"midpoints" : [  ]
				}

			}
, 			{
				"patchline" : 				{
					"source" : [ "obj-22", 0 ],
					"destination" : [ "obj-4", 0 ],
					"hidden" : 0,
					"midpoints" : [  ]
				}

			}
, 			{
				"patchline" : 				{
					"source" : [ "obj-23", 0 ],
					"destination" : [ "obj-25", 0 ],
					"hidden" : 0,
					"midpoints" : [  ]
				}

			}
, 			{
				"patchline" : 				{
					"source" : [ "obj-25", 0 ],
					"destination" : [ "obj-17", 0 ],
					"hidden" : 0,
					"midpoints" : [ 204.5, 76.0, 174.5, 76.0 ]
				}

			}
 ]
	}

}
