{
	"patcher" : 	{
		"fileversion" : 1,
		"rect" : [ 73.0, 215.0, 1331.0, 463.0 ],
		"bglocked" : 0,
		"defrect" : [ 73.0, 215.0, 1331.0, 463.0 ],
		"openrect" : [ 0.0, 0.0, 0.0, 0.0 ],
		"openinpresentation" : 1,
		"default_fontsize" : 12.0,
		"default_fontface" : 0,
		"default_fontname" : "Arial",
		"gridonopen" : 0,
		"gridsize" : [ 15.0, 15.0 ],
		"gridsnaponopen" : 0,
		"toolbarvisible" : 1,
		"boxanimatetime" : 200,
		"imprint" : 0,
		"enablehscroll" : 1,
		"enablevscroll" : 1,
		"devicewidth" : 0.0,
		"boxes" : [ 			{
				"box" : 				{
					"maxclass" : "inlet",
					"id" : "obj-19",
					"numinlets" : 0,
					"patching_rect" : [ 165.0, 105.0, 25.0, 25.0 ],
					"numoutlets" : 1,
					"outlettype" : [ "" ],
					"comment" : "randomize!"
				}

			}
, 			{
				"box" : 				{
					"maxclass" : "comment",
					"text" : "These are set up in groups of 8 to make it simple to add more steps. If we want to from 32 to 40 steps, we can just copy a group of 8, add the appropriate step numbers to select, then hook it up to the randomize bang.",
					"linecount" : 3,
					"fontsize" : 12.0,
					"id" : "obj-18",
					"numinlets" : 1,
					"patching_rect" : [ 585.0, 255.0, 405.0, 48.0 ],
					"numoutlets" : 0,
					"fontname" : "Arial"
				}

			}
, 			{
				"box" : 				{
					"maxclass" : "panel",
					"border" : 2,
					"bgcolor" : [ 0.858824, 0.858824, 0.858824, 1.0 ],
					"id" : "obj-22",
					"numinlets" : 1,
					"patching_rect" : [ 585.0, 255.0, 405.0, 45.0 ],
					"bordercolor" : [ 0.537255, 0.537255, 0.537255, 1.0 ],
					"numoutlets" : 0
				}

			}
, 			{
				"box" : 				{
					"maxclass" : "outlet",
					"id" : "obj-15",
					"numinlets" : 1,
					"patching_rect" : [ 15.0, 420.0, 25.0, 25.0 ],
					"numoutlets" : 0,
					"comment" : "step number"
				}

			}
, 			{
				"box" : 				{
					"maxclass" : "inlet",
					"id" : "obj-6",
					"numinlets" : 0,
					"patching_rect" : [ 15.0, 15.0, 25.0, 25.0 ],
					"numoutlets" : 1,
					"outlettype" : [ "" ],
					"comment" : "step number"
				}

			}
, 			{
				"box" : 				{
					"maxclass" : "outlet",
					"id" : "obj-5",
					"numinlets" : 1,
					"patching_rect" : [ 75.0, 420.0, 25.0, 25.0 ],
					"numoutlets" : 0,
					"comment" : "total steps"
				}

			}
, 			{
				"box" : 				{
					"maxclass" : "comment",
					"text" : "First sends 0 to all 32 outlets (thereby clearing any toggle elements this module is connected to), then x number of bangs to random outlets between 1 and the number of chosen steps. The basic concept is to output a bang to the outlet index that corresponds to the number generated by the random object.",
					"linecount" : 5,
					"fontsize" : 12.0,
					"id" : "obj-8",
					"numinlets" : 1,
					"patching_rect" : [ 285.0, 15.0, 390.0, 75.0 ],
					"numoutlets" : 0,
					"fontname" : "Arial"
				}

			}
, 			{
				"box" : 				{
					"maxclass" : "newobj",
					"text" : "t b b b b b",
					"fontsize" : 12.0,
					"id" : "obj-4",
					"numinlets" : 1,
					"patching_rect" : [ 165.0, 180.0, 73.0, 20.0 ],
					"numoutlets" : 5,
					"fontname" : "Arial",
					"outlettype" : [ "bang", "bang", "bang", "bang", "bang" ]
				}

			}
, 			{
				"box" : 				{
					"maxclass" : "newobj",
					"text" : "loadbang",
					"fontsize" : 12.0,
					"id" : "obj-17",
					"numinlets" : 1,
					"patching_rect" : [ 135.0, 15.0, 60.0, 20.0 ],
					"numoutlets" : 1,
					"fontname" : "Arial",
					"outlettype" : [ "bang" ]
				}

			}
, 			{
				"box" : 				{
					"maxclass" : "message",
					"text" : "32",
					"fontsize" : 12.0,
					"id" : "obj-16",
					"numinlets" : 2,
					"patching_rect" : [ 135.0, 45.0, 32.5, 18.0 ],
					"numoutlets" : 1,
					"fontname" : "Arial",
					"outlettype" : [ "" ]
				}

			}
, 			{
				"box" : 				{
					"maxclass" : "newobj",
					"text" : "t 0 0 0 0 0 0 0 0",
					"fontsize" : 12.0,
					"id" : "obj-14",
					"numinlets" : 1,
					"patching_rect" : [ 1350.0, 375.0, 333.5, 20.0 ],
					"numoutlets" : 8,
					"fontname" : "Arial",
					"outlettype" : [ "int", "int", "int", "int", "int", "int", "int", "int" ]
				}

			}
, 			{
				"box" : 				{
					"maxclass" : "newobj",
					"text" : "t 0 0 0 0 0 0 0 0",
					"fontsize" : 12.0,
					"id" : "obj-13",
					"numinlets" : 1,
					"patching_rect" : [ 945.0, 375.0, 333.5, 20.0 ],
					"numoutlets" : 8,
					"fontname" : "Arial",
					"outlettype" : [ "int", "int", "int", "int", "int", "int", "int", "int" ]
				}

			}
, 			{
				"box" : 				{
					"maxclass" : "newobj",
					"text" : "t 0 0 0 0 0 0 0 0",
					"fontsize" : 12.0,
					"id" : "obj-12",
					"numinlets" : 1,
					"patching_rect" : [ 540.0, 375.0, 333.5, 20.0 ],
					"numoutlets" : 8,
					"fontname" : "Arial",
					"outlettype" : [ "int", "int", "int", "int", "int", "int", "int", "int" ]
				}

			}
, 			{
				"box" : 				{
					"maxclass" : "newobj",
					"text" : "t 0 0 0 0 0 0 0 0",
					"fontsize" : 12.0,
					"id" : "obj-1",
					"numinlets" : 1,
					"patching_rect" : [ 135.0, 375.0, 333.5, 20.0 ],
					"numoutlets" : 8,
					"fontname" : "Arial",
					"outlettype" : [ "int", "int", "int", "int", "int", "int", "int", "int" ]
				}

			}
, 			{
				"box" : 				{
					"maxclass" : "comment",
					"text" : "steps",
					"presentation_rect" : [ 172.0, 5.0, 37.0, 20.0 ],
					"fontsize" : 12.0,
					"id" : "obj-126",
					"numinlets" : 1,
					"patching_rect" : [ 182.0, 75.0, 37.0, 20.0 ],
					"presentation" : 1,
					"numoutlets" : 0,
					"fontname" : "Arial"
				}

			}
, 			{
				"box" : 				{
					"maxclass" : "comment",
					"text" : "randomize!",
					"presentation_rect" : [ 19.0, 5.0, 69.0, 20.0 ],
					"fontsize" : 12.0,
					"id" : "obj-124",
					"numinlets" : 1,
					"patching_rect" : [ 181.0, 150.0, 69.0, 20.0 ],
					"presentation" : 1,
					"numoutlets" : 0,
					"fontname" : "Arial"
				}

			}
, 			{
				"box" : 				{
					"maxclass" : "outlet",
					"id" : "obj-104",
					"numinlets" : 1,
					"patching_rect" : [ 1695.0, 420.0, 25.0, 25.0 ],
					"numoutlets" : 0,
					"comment" : "32"
				}

			}
, 			{
				"box" : 				{
					"maxclass" : "outlet",
					"id" : "obj-107",
					"numinlets" : 1,
					"patching_rect" : [ 1650.0, 420.0, 25.0, 25.0 ],
					"numoutlets" : 0,
					"comment" : "31"
				}

			}
, 			{
				"box" : 				{
					"maxclass" : "outlet",
					"id" : "obj-110",
					"numinlets" : 1,
					"patching_rect" : [ 1605.0, 420.0, 25.0, 25.0 ],
					"numoutlets" : 0,
					"comment" : "30"
				}

			}
, 			{
				"box" : 				{
					"maxclass" : "outlet",
					"id" : "obj-112",
					"numinlets" : 1,
					"patching_rect" : [ 1560.0, 420.0, 25.0, 25.0 ],
					"numoutlets" : 0,
					"comment" : "29"
				}

			}
, 			{
				"box" : 				{
					"maxclass" : "outlet",
					"id" : "obj-114",
					"numinlets" : 1,
					"patching_rect" : [ 1515.0, 420.0, 25.0, 25.0 ],
					"numoutlets" : 0,
					"comment" : "28"
				}

			}
, 			{
				"box" : 				{
					"maxclass" : "outlet",
					"id" : "obj-116",
					"numinlets" : 1,
					"patching_rect" : [ 1470.0, 420.0, 25.0, 25.0 ],
					"numoutlets" : 0,
					"comment" : "27"
				}

			}
, 			{
				"box" : 				{
					"maxclass" : "outlet",
					"id" : "obj-118",
					"numinlets" : 1,
					"patching_rect" : [ 1425.0, 420.0, 25.0, 25.0 ],
					"numoutlets" : 0,
					"comment" : "26"
				}

			}
, 			{
				"box" : 				{
					"maxclass" : "outlet",
					"id" : "obj-120",
					"numinlets" : 1,
					"patching_rect" : [ 1380.0, 420.0, 25.0, 25.0 ],
					"numoutlets" : 0,
					"comment" : "25"
				}

			}
, 			{
				"box" : 				{
					"maxclass" : "newobj",
					"text" : "select 25 26 27 28 29 30 31 32",
					"fontsize" : 12.0,
					"id" : "obj-121",
					"numinlets" : 1,
					"patching_rect" : [ 1380.0, 330.0, 379.0, 20.0 ],
					"numoutlets" : 9,
					"fontname" : "Arial",
					"outlettype" : [ "bang", "bang", "bang", "bang", "bang", "bang", "bang", "bang", "" ]
				}

			}
, 			{
				"box" : 				{
					"maxclass" : "outlet",
					"id" : "obj-85",
					"numinlets" : 1,
					"patching_rect" : [ 1290.0, 420.0, 25.0, 25.0 ],
					"numoutlets" : 0,
					"comment" : "24"
				}

			}
, 			{
				"box" : 				{
					"maxclass" : "outlet",
					"id" : "obj-88",
					"numinlets" : 1,
					"patching_rect" : [ 1245.0, 420.0, 25.0, 25.0 ],
					"numoutlets" : 0,
					"comment" : "23"
				}

			}
, 			{
				"box" : 				{
					"maxclass" : "outlet",
					"id" : "obj-91",
					"numinlets" : 1,
					"patching_rect" : [ 1200.0, 420.0, 25.0, 25.0 ],
					"numoutlets" : 0,
					"comment" : "22"
				}

			}
, 			{
				"box" : 				{
					"maxclass" : "outlet",
					"id" : "obj-93",
					"numinlets" : 1,
					"patching_rect" : [ 1155.0, 420.0, 25.0, 25.0 ],
					"numoutlets" : 0,
					"comment" : "21"
				}

			}
, 			{
				"box" : 				{
					"maxclass" : "outlet",
					"id" : "obj-95",
					"numinlets" : 1,
					"patching_rect" : [ 1110.0, 420.0, 25.0, 25.0 ],
					"numoutlets" : 0,
					"comment" : "20"
				}

			}
, 			{
				"box" : 				{
					"maxclass" : "outlet",
					"id" : "obj-97",
					"numinlets" : 1,
					"patching_rect" : [ 1065.0, 420.0, 25.0, 25.0 ],
					"numoutlets" : 0,
					"comment" : "19"
				}

			}
, 			{
				"box" : 				{
					"maxclass" : "outlet",
					"id" : "obj-99",
					"numinlets" : 1,
					"patching_rect" : [ 1020.0, 420.0, 25.0, 25.0 ],
					"numoutlets" : 0,
					"comment" : "18"
				}

			}
, 			{
				"box" : 				{
					"maxclass" : "outlet",
					"id" : "obj-101",
					"numinlets" : 1,
					"patching_rect" : [ 975.0, 420.0, 25.0, 25.0 ],
					"numoutlets" : 0,
					"comment" : "17"
				}

			}
, 			{
				"box" : 				{
					"maxclass" : "newobj",
					"text" : "select 17 18 19 20 21 22 23 24",
					"fontsize" : 12.0,
					"id" : "obj-102",
					"numinlets" : 1,
					"patching_rect" : [ 975.0, 330.0, 379.0, 20.0 ],
					"numoutlets" : 9,
					"fontname" : "Arial",
					"outlettype" : [ "bang", "bang", "bang", "bang", "bang", "bang", "bang", "bang", "" ]
				}

			}
, 			{
				"box" : 				{
					"maxclass" : "outlet",
					"id" : "obj-67",
					"numinlets" : 1,
					"patching_rect" : [ 885.0, 420.0, 25.0, 25.0 ],
					"numoutlets" : 0,
					"comment" : "16"
				}

			}
, 			{
				"box" : 				{
					"maxclass" : "outlet",
					"id" : "obj-70",
					"numinlets" : 1,
					"patching_rect" : [ 840.0, 420.0, 25.0, 25.0 ],
					"numoutlets" : 0,
					"comment" : "15"
				}

			}
, 			{
				"box" : 				{
					"maxclass" : "outlet",
					"id" : "obj-73",
					"numinlets" : 1,
					"patching_rect" : [ 795.0, 420.0, 25.0, 25.0 ],
					"numoutlets" : 0,
					"comment" : "14"
				}

			}
, 			{
				"box" : 				{
					"maxclass" : "outlet",
					"id" : "obj-75",
					"numinlets" : 1,
					"patching_rect" : [ 750.0, 420.0, 25.0, 25.0 ],
					"numoutlets" : 0,
					"comment" : "13"
				}

			}
, 			{
				"box" : 				{
					"maxclass" : "outlet",
					"id" : "obj-77",
					"numinlets" : 1,
					"patching_rect" : [ 705.0, 420.0, 25.0, 25.0 ],
					"numoutlets" : 0,
					"comment" : "12"
				}

			}
, 			{
				"box" : 				{
					"maxclass" : "outlet",
					"id" : "obj-79",
					"numinlets" : 1,
					"patching_rect" : [ 660.0, 420.0, 25.0, 25.0 ],
					"numoutlets" : 0,
					"comment" : "11"
				}

			}
, 			{
				"box" : 				{
					"maxclass" : "outlet",
					"id" : "obj-81",
					"numinlets" : 1,
					"patching_rect" : [ 615.0, 420.0, 25.0, 25.0 ],
					"numoutlets" : 0,
					"comment" : "10"
				}

			}
, 			{
				"box" : 				{
					"maxclass" : "outlet",
					"id" : "obj-83",
					"numinlets" : 1,
					"patching_rect" : [ 570.0, 420.0, 25.0, 25.0 ],
					"numoutlets" : 0,
					"comment" : "9"
				}

			}
, 			{
				"box" : 				{
					"maxclass" : "outlet",
					"id" : "obj-64",
					"numinlets" : 1,
					"patching_rect" : [ 480.0, 420.0, 25.0, 25.0 ],
					"numoutlets" : 0,
					"comment" : "8"
				}

			}
, 			{
				"box" : 				{
					"maxclass" : "outlet",
					"id" : "obj-61",
					"numinlets" : 1,
					"patching_rect" : [ 435.0, 420.0, 25.0, 25.0 ],
					"numoutlets" : 0,
					"comment" : "7"
				}

			}
, 			{
				"box" : 				{
					"maxclass" : "outlet",
					"id" : "obj-59",
					"numinlets" : 1,
					"patching_rect" : [ 390.0, 420.0, 25.0, 25.0 ],
					"numoutlets" : 0,
					"comment" : "6"
				}

			}
, 			{
				"box" : 				{
					"maxclass" : "outlet",
					"id" : "obj-57",
					"numinlets" : 1,
					"patching_rect" : [ 345.0, 420.0, 25.0, 25.0 ],
					"numoutlets" : 0,
					"comment" : "5"
				}

			}
, 			{
				"box" : 				{
					"maxclass" : "outlet",
					"id" : "obj-55",
					"numinlets" : 1,
					"patching_rect" : [ 300.0, 420.0, 25.0, 25.0 ],
					"numoutlets" : 0,
					"comment" : "4"
				}

			}
, 			{
				"box" : 				{
					"maxclass" : "outlet",
					"id" : "obj-53",
					"numinlets" : 1,
					"patching_rect" : [ 255.0, 420.0, 25.0, 25.0 ],
					"numoutlets" : 0,
					"comment" : "3"
				}

			}
, 			{
				"box" : 				{
					"maxclass" : "outlet",
					"id" : "obj-51",
					"numinlets" : 1,
					"patching_rect" : [ 210.0, 420.0, 25.0, 25.0 ],
					"numoutlets" : 0,
					"comment" : "2"
				}

			}
, 			{
				"box" : 				{
					"maxclass" : "outlet",
					"id" : "obj-47",
					"numinlets" : 1,
					"patching_rect" : [ 165.0, 420.0, 25.0, 25.0 ],
					"numoutlets" : 0,
					"comment" : "1"
				}

			}
, 			{
				"box" : 				{
					"maxclass" : "button",
					"presentation_rect" : [ 4.0, 5.0, 20.0, 20.0 ],
					"id" : "obj-46",
					"numinlets" : 1,
					"patching_rect" : [ 165.0, 150.0, 20.0, 20.0 ],
					"presentation" : 1,
					"numoutlets" : 1,
					"outlettype" : [ "bang" ]
				}

			}
, 			{
				"box" : 				{
					"maxclass" : "newobj",
					"text" : "+ 1",
					"fontsize" : 12.0,
					"id" : "obj-11",
					"numinlets" : 2,
					"patching_rect" : [ 105.0, 285.0, 32.5, 20.0 ],
					"numoutlets" : 1,
					"fontname" : "Arial",
					"outlettype" : [ "int" ]
				}

			}
, 			{
				"box" : 				{
					"maxclass" : "newobj",
					"text" : "random 32",
					"fontsize" : 12.0,
					"id" : "obj-10",
					"numinlets" : 2,
					"patching_rect" : [ 105.0, 255.0, 68.0, 20.0 ],
					"numoutlets" : 1,
					"fontname" : "Arial",
					"outlettype" : [ "int" ]
				}

			}
, 			{
				"box" : 				{
					"maxclass" : "number",
					"presentation_rect" : [ 124.0, 5.0, 50.0, 20.0 ],
					"fontsize" : 12.0,
					"minimum" : 0,
					"id" : "obj-9",
					"numinlets" : 1,
					"maximum" : 32,
					"patching_rect" : [ 135.0, 75.0, 50.0, 20.0 ],
					"presentation" : 1,
					"numoutlets" : 2,
					"fontname" : "Arial",
					"outlettype" : [ "int", "bang" ]
				}

			}
, 			{
				"box" : 				{
					"maxclass" : "newobj",
					"text" : "uzi",
					"fontsize" : 12.0,
					"id" : "obj-7",
					"numinlets" : 2,
					"patching_rect" : [ 105.0, 225.0, 49.0, 20.0 ],
					"numoutlets" : 3,
					"fontname" : "Arial",
					"outlettype" : [ "bang", "bang", "int" ]
				}

			}
, 			{
				"box" : 				{
					"maxclass" : "newobj",
					"text" : "select 9 10 11 12 13 14 15 16",
					"fontsize" : 12.0,
					"id" : "obj-3",
					"numinlets" : 1,
					"patching_rect" : [ 570.0, 330.0, 379.0, 20.0 ],
					"numoutlets" : 9,
					"fontname" : "Arial",
					"outlettype" : [ "bang", "bang", "bang", "bang", "bang", "bang", "bang", "bang", "" ]
				}

			}
, 			{
				"box" : 				{
					"maxclass" : "newobj",
					"text" : "select 1 2 3 4 5 6 7 8",
					"fontsize" : 12.0,
					"id" : "obj-2",
					"numinlets" : 1,
					"patching_rect" : [ 165.0, 330.0, 379.0, 20.0 ],
					"numoutlets" : 9,
					"fontname" : "Arial",
					"outlettype" : [ "bang", "bang", "bang", "bang", "bang", "bang", "bang", "bang", "" ]
				}

			}
, 			{
				"box" : 				{
					"maxclass" : "panel",
					"border" : 2,
					"bgcolor" : [ 0.858824, 0.858824, 0.858824, 1.0 ],
					"presentation_rect" : [ 0.0, 0.0, 210.0, 30.0 ],
					"id" : "obj-122",
					"numinlets" : 1,
					"patching_rect" : [ 285.0, 15.0, 390.0, 75.0 ],
					"presentation" : 1,
					"bordercolor" : [ 0.537255, 0.537255, 0.537255, 1.0 ],
					"numoutlets" : 0
				}

			}
 ],
		"lines" : [ 			{
				"patchline" : 				{
					"source" : [ "obj-19", 0 ],
					"destination" : [ "obj-46", 0 ],
					"hidden" : 0,
					"midpoints" : [  ]
				}

			}
, 			{
				"patchline" : 				{
					"source" : [ "obj-46", 0 ],
					"destination" : [ "obj-4", 0 ],
					"hidden" : 0,
					"midpoints" : [  ]
				}

			}
, 			{
				"patchline" : 				{
					"source" : [ "obj-4", 4 ],
					"destination" : [ "obj-1", 0 ],
					"hidden" : 0,
					"midpoints" : [ 228.5, 309.5, 144.5, 309.5 ]
				}

			}
, 			{
				"patchline" : 				{
					"source" : [ "obj-4", 0 ],
					"destination" : [ "obj-7", 0 ],
					"hidden" : 0,
					"midpoints" : [ 174.5, 211.0, 114.5, 211.0 ]
				}

			}
, 			{
				"patchline" : 				{
					"source" : [ "obj-4", 3 ],
					"destination" : [ "obj-12", 0 ],
					"hidden" : 0,
					"midpoints" : [ 215.0, 309.5, 549.5, 309.5 ]
				}

			}
, 			{
				"patchline" : 				{
					"source" : [ "obj-4", 2 ],
					"destination" : [ "obj-13", 0 ],
					"hidden" : 0,
					"midpoints" : [ 201.5, 309.5, 954.5, 309.5 ]
				}

			}
, 			{
				"patchline" : 				{
					"source" : [ "obj-4", 1 ],
					"destination" : [ "obj-14", 0 ],
					"hidden" : 0,
					"midpoints" : [ 188.0, 309.5, 1359.5, 309.5 ]
				}

			}
, 			{
				"patchline" : 				{
					"source" : [ "obj-14", 7 ],
					"destination" : [ "obj-104", 0 ],
					"hidden" : 0,
					"midpoints" : [  ]
				}

			}
, 			{
				"patchline" : 				{
					"source" : [ "obj-14", 0 ],
					"destination" : [ "obj-120", 0 ],
					"hidden" : 0,
					"midpoints" : [  ]
				}

			}
, 			{
				"patchline" : 				{
					"source" : [ "obj-14", 1 ],
					"destination" : [ "obj-118", 0 ],
					"hidden" : 0,
					"midpoints" : [  ]
				}

			}
, 			{
				"patchline" : 				{
					"source" : [ "obj-14", 2 ],
					"destination" : [ "obj-116", 0 ],
					"hidden" : 0,
					"midpoints" : [  ]
				}

			}
, 			{
				"patchline" : 				{
					"source" : [ "obj-14", 3 ],
					"destination" : [ "obj-114", 0 ],
					"hidden" : 0,
					"midpoints" : [  ]
				}

			}
, 			{
				"patchline" : 				{
					"source" : [ "obj-14", 4 ],
					"destination" : [ "obj-112", 0 ],
					"hidden" : 0,
					"midpoints" : [  ]
				}

			}
, 			{
				"patchline" : 				{
					"source" : [ "obj-14", 5 ],
					"destination" : [ "obj-110", 0 ],
					"hidden" : 0,
					"midpoints" : [  ]
				}

			}
, 			{
				"patchline" : 				{
					"source" : [ "obj-14", 6 ],
					"destination" : [ "obj-107", 0 ],
					"hidden" : 0,
					"midpoints" : [  ]
				}

			}
, 			{
				"patchline" : 				{
					"source" : [ "obj-13", 7 ],
					"destination" : [ "obj-85", 0 ],
					"hidden" : 0,
					"midpoints" : [  ]
				}

			}
, 			{
				"patchline" : 				{
					"source" : [ "obj-13", 6 ],
					"destination" : [ "obj-88", 0 ],
					"hidden" : 0,
					"midpoints" : [  ]
				}

			}
, 			{
				"patchline" : 				{
					"source" : [ "obj-13", 5 ],
					"destination" : [ "obj-91", 0 ],
					"hidden" : 0,
					"midpoints" : [  ]
				}

			}
, 			{
				"patchline" : 				{
					"source" : [ "obj-13", 4 ],
					"destination" : [ "obj-93", 0 ],
					"hidden" : 0,
					"midpoints" : [  ]
				}

			}
, 			{
				"patchline" : 				{
					"source" : [ "obj-13", 3 ],
					"destination" : [ "obj-95", 0 ],
					"hidden" : 0,
					"midpoints" : [  ]
				}

			}
, 			{
				"patchline" : 				{
					"source" : [ "obj-13", 2 ],
					"destination" : [ "obj-97", 0 ],
					"hidden" : 0,
					"midpoints" : [  ]
				}

			}
, 			{
				"patchline" : 				{
					"source" : [ "obj-13", 1 ],
					"destination" : [ "obj-99", 0 ],
					"hidden" : 0,
					"midpoints" : [  ]
				}

			}
, 			{
				"patchline" : 				{
					"source" : [ "obj-13", 0 ],
					"destination" : [ "obj-101", 0 ],
					"hidden" : 0,
					"midpoints" : [  ]
				}

			}
, 			{
				"patchline" : 				{
					"source" : [ "obj-12", 7 ],
					"destination" : [ "obj-67", 0 ],
					"hidden" : 0,
					"midpoints" : [  ]
				}

			}
, 			{
				"patchline" : 				{
					"source" : [ "obj-12", 6 ],
					"destination" : [ "obj-70", 0 ],
					"hidden" : 0,
					"midpoints" : [  ]
				}

			}
, 			{
				"patchline" : 				{
					"source" : [ "obj-12", 5 ],
					"destination" : [ "obj-73", 0 ],
					"hidden" : 0,
					"midpoints" : [  ]
				}

			}
, 			{
				"patchline" : 				{
					"source" : [ "obj-12", 4 ],
					"destination" : [ "obj-75", 0 ],
					"hidden" : 0,
					"midpoints" : [  ]
				}

			}
, 			{
				"patchline" : 				{
					"source" : [ "obj-12", 3 ],
					"destination" : [ "obj-77", 0 ],
					"hidden" : 0,
					"midpoints" : [  ]
				}

			}
, 			{
				"patchline" : 				{
					"source" : [ "obj-12", 2 ],
					"destination" : [ "obj-79", 0 ],
					"hidden" : 0,
					"midpoints" : [  ]
				}

			}
, 			{
				"patchline" : 				{
					"source" : [ "obj-12", 1 ],
					"destination" : [ "obj-81", 0 ],
					"hidden" : 0,
					"midpoints" : [  ]
				}

			}
, 			{
				"patchline" : 				{
					"source" : [ "obj-12", 0 ],
					"destination" : [ "obj-83", 0 ],
					"hidden" : 0,
					"midpoints" : [  ]
				}

			}
, 			{
				"patchline" : 				{
					"source" : [ "obj-1", 0 ],
					"destination" : [ "obj-47", 0 ],
					"hidden" : 0,
					"midpoints" : [  ]
				}

			}
, 			{
				"patchline" : 				{
					"source" : [ "obj-1", 1 ],
					"destination" : [ "obj-51", 0 ],
					"hidden" : 0,
					"midpoints" : [  ]
				}

			}
, 			{
				"patchline" : 				{
					"source" : [ "obj-1", 2 ],
					"destination" : [ "obj-53", 0 ],
					"hidden" : 0,
					"midpoints" : [  ]
				}

			}
, 			{
				"patchline" : 				{
					"source" : [ "obj-1", 3 ],
					"destination" : [ "obj-55", 0 ],
					"hidden" : 0,
					"midpoints" : [  ]
				}

			}
, 			{
				"patchline" : 				{
					"source" : [ "obj-1", 4 ],
					"destination" : [ "obj-57", 0 ],
					"hidden" : 0,
					"midpoints" : [  ]
				}

			}
, 			{
				"patchline" : 				{
					"source" : [ "obj-1", 5 ],
					"destination" : [ "obj-59", 0 ],
					"hidden" : 0,
					"midpoints" : [  ]
				}

			}
, 			{
				"patchline" : 				{
					"source" : [ "obj-1", 6 ],
					"destination" : [ "obj-61", 0 ],
					"hidden" : 0,
					"midpoints" : [  ]
				}

			}
, 			{
				"patchline" : 				{
					"source" : [ "obj-1", 7 ],
					"destination" : [ "obj-64", 0 ],
					"hidden" : 0,
					"midpoints" : [  ]
				}

			}
, 			{
				"patchline" : 				{
					"source" : [ "obj-9", 0 ],
					"destination" : [ "obj-10", 1 ],
					"hidden" : 0,
					"midpoints" : [ 144.5, 105.0, 163.5, 105.0 ]
				}

			}
, 			{
				"patchline" : 				{
					"source" : [ "obj-121", 0 ],
					"destination" : [ "obj-120", 0 ],
					"hidden" : 0,
					"midpoints" : [  ]
				}

			}
, 			{
				"patchline" : 				{
					"source" : [ "obj-121", 1 ],
					"destination" : [ "obj-118", 0 ],
					"hidden" : 0,
					"midpoints" : [  ]
				}

			}
, 			{
				"patchline" : 				{
					"source" : [ "obj-121", 2 ],
					"destination" : [ "obj-116", 0 ],
					"hidden" : 0,
					"midpoints" : [  ]
				}

			}
, 			{
				"patchline" : 				{
					"source" : [ "obj-121", 3 ],
					"destination" : [ "obj-114", 0 ],
					"hidden" : 0,
					"midpoints" : [  ]
				}

			}
, 			{
				"patchline" : 				{
					"source" : [ "obj-121", 4 ],
					"destination" : [ "obj-112", 0 ],
					"hidden" : 0,
					"midpoints" : [  ]
				}

			}
, 			{
				"patchline" : 				{
					"source" : [ "obj-121", 5 ],
					"destination" : [ "obj-110", 0 ],
					"hidden" : 0,
					"midpoints" : [  ]
				}

			}
, 			{
				"patchline" : 				{
					"source" : [ "obj-121", 6 ],
					"destination" : [ "obj-107", 0 ],
					"hidden" : 0,
					"midpoints" : [  ]
				}

			}
, 			{
				"patchline" : 				{
					"source" : [ "obj-121", 7 ],
					"destination" : [ "obj-104", 0 ],
					"hidden" : 0,
					"midpoints" : [  ]
				}

			}
, 			{
				"patchline" : 				{
					"source" : [ "obj-11", 0 ],
					"destination" : [ "obj-121", 0 ],
					"hidden" : 0,
					"midpoints" : [ 114.5, 317.0, 1389.5, 317.0 ]
				}

			}
, 			{
				"patchline" : 				{
					"source" : [ "obj-102", 7 ],
					"destination" : [ "obj-85", 0 ],
					"hidden" : 0,
					"midpoints" : [  ]
				}

			}
, 			{
				"patchline" : 				{
					"source" : [ "obj-102", 6 ],
					"destination" : [ "obj-88", 0 ],
					"hidden" : 0,
					"midpoints" : [  ]
				}

			}
, 			{
				"patchline" : 				{
					"source" : [ "obj-102", 5 ],
					"destination" : [ "obj-91", 0 ],
					"hidden" : 0,
					"midpoints" : [  ]
				}

			}
, 			{
				"patchline" : 				{
					"source" : [ "obj-102", 4 ],
					"destination" : [ "obj-93", 0 ],
					"hidden" : 0,
					"midpoints" : [  ]
				}

			}
, 			{
				"patchline" : 				{
					"source" : [ "obj-102", 3 ],
					"destination" : [ "obj-95", 0 ],
					"hidden" : 0,
					"midpoints" : [  ]
				}

			}
, 			{
				"patchline" : 				{
					"source" : [ "obj-102", 2 ],
					"destination" : [ "obj-97", 0 ],
					"hidden" : 0,
					"midpoints" : [  ]
				}

			}
, 			{
				"patchline" : 				{
					"source" : [ "obj-102", 1 ],
					"destination" : [ "obj-99", 0 ],
					"hidden" : 0,
					"midpoints" : [  ]
				}

			}
, 			{
				"patchline" : 				{
					"source" : [ "obj-102", 0 ],
					"destination" : [ "obj-101", 0 ],
					"hidden" : 0,
					"midpoints" : [  ]
				}

			}
, 			{
				"patchline" : 				{
					"source" : [ "obj-11", 0 ],
					"destination" : [ "obj-102", 0 ],
					"hidden" : 0,
					"midpoints" : [ 114.5, 317.0, 984.5, 317.0 ]
				}

			}
, 			{
				"patchline" : 				{
					"source" : [ "obj-3", 7 ],
					"destination" : [ "obj-67", 0 ],
					"hidden" : 0,
					"midpoints" : [  ]
				}

			}
, 			{
				"patchline" : 				{
					"source" : [ "obj-3", 6 ],
					"destination" : [ "obj-70", 0 ],
					"hidden" : 0,
					"midpoints" : [  ]
				}

			}
, 			{
				"patchline" : 				{
					"source" : [ "obj-3", 5 ],
					"destination" : [ "obj-73", 0 ],
					"hidden" : 0,
					"midpoints" : [  ]
				}

			}
, 			{
				"patchline" : 				{
					"source" : [ "obj-3", 4 ],
					"destination" : [ "obj-75", 0 ],
					"hidden" : 0,
					"midpoints" : [  ]
				}

			}
, 			{
				"patchline" : 				{
					"source" : [ "obj-3", 3 ],
					"destination" : [ "obj-77", 0 ],
					"hidden" : 0,
					"midpoints" : [  ]
				}

			}
, 			{
				"patchline" : 				{
					"source" : [ "obj-3", 2 ],
					"destination" : [ "obj-79", 0 ],
					"hidden" : 0,
					"midpoints" : [  ]
				}

			}
, 			{
				"patchline" : 				{
					"source" : [ "obj-3", 1 ],
					"destination" : [ "obj-81", 0 ],
					"hidden" : 0,
					"midpoints" : [  ]
				}

			}
, 			{
				"patchline" : 				{
					"source" : [ "obj-3", 0 ],
					"destination" : [ "obj-83", 0 ],
					"hidden" : 0,
					"midpoints" : [  ]
				}

			}
, 			{
				"patchline" : 				{
					"source" : [ "obj-2", 7 ],
					"destination" : [ "obj-64", 0 ],
					"hidden" : 0,
					"midpoints" : [  ]
				}

			}
, 			{
				"patchline" : 				{
					"source" : [ "obj-2", 6 ],
					"destination" : [ "obj-61", 0 ],
					"hidden" : 0,
					"midpoints" : [  ]
				}

			}
, 			{
				"patchline" : 				{
					"source" : [ "obj-2", 5 ],
					"destination" : [ "obj-59", 0 ],
					"hidden" : 0,
					"midpoints" : [  ]
				}

			}
, 			{
				"patchline" : 				{
					"source" : [ "obj-2", 4 ],
					"destination" : [ "obj-57", 0 ],
					"hidden" : 0,
					"midpoints" : [  ]
				}

			}
, 			{
				"patchline" : 				{
					"source" : [ "obj-2", 3 ],
					"destination" : [ "obj-55", 0 ],
					"hidden" : 0,
					"midpoints" : [  ]
				}

			}
, 			{
				"patchline" : 				{
					"source" : [ "obj-2", 2 ],
					"destination" : [ "obj-53", 0 ],
					"hidden" : 0,
					"midpoints" : [  ]
				}

			}
, 			{
				"patchline" : 				{
					"source" : [ "obj-2", 0 ],
					"destination" : [ "obj-47", 0 ],
					"hidden" : 0,
					"midpoints" : [  ]
				}

			}
, 			{
				"patchline" : 				{
					"source" : [ "obj-11", 0 ],
					"destination" : [ "obj-3", 0 ],
					"hidden" : 0,
					"midpoints" : [ 114.5, 317.0, 579.5, 317.0 ]
				}

			}
, 			{
				"patchline" : 				{
					"source" : [ "obj-11", 0 ],
					"destination" : [ "obj-2", 0 ],
					"hidden" : 0,
					"midpoints" : [ 114.5, 317.0, 174.5, 317.0 ]
				}

			}
, 			{
				"patchline" : 				{
					"source" : [ "obj-7", 0 ],
					"destination" : [ "obj-10", 0 ],
					"hidden" : 0,
					"midpoints" : [  ]
				}

			}
, 			{
				"patchline" : 				{
					"source" : [ "obj-10", 0 ],
					"destination" : [ "obj-11", 0 ],
					"hidden" : 0,
					"midpoints" : [  ]
				}

			}
, 			{
				"patchline" : 				{
					"source" : [ "obj-9", 0 ],
					"destination" : [ "obj-7", 1 ],
					"hidden" : 0,
					"midpoints" : [  ]
				}

			}
, 			{
				"patchline" : 				{
					"source" : [ "obj-2", 1 ],
					"destination" : [ "obj-51", 0 ],
					"hidden" : 0,
					"midpoints" : [  ]
				}

			}
, 			{
				"patchline" : 				{
					"source" : [ "obj-16", 0 ],
					"destination" : [ "obj-9", 0 ],
					"hidden" : 0,
					"midpoints" : [  ]
				}

			}
, 			{
				"patchline" : 				{
					"source" : [ "obj-17", 0 ],
					"destination" : [ "obj-16", 0 ],
					"hidden" : 0,
					"midpoints" : [  ]
				}

			}
, 			{
				"patchline" : 				{
					"source" : [ "obj-9", 0 ],
					"destination" : [ "obj-5", 0 ],
					"hidden" : 0,
					"midpoints" : [ 144.5, 105.0, 84.5, 105.0 ]
				}

			}
, 			{
				"patchline" : 				{
					"source" : [ "obj-6", 0 ],
					"destination" : [ "obj-15", 0 ],
					"hidden" : 0,
					"midpoints" : [  ]
				}

			}
 ]
	}

}
