{
	"patcher" : 	{
		"fileversion" : 1,
		"rect" : [ 154.0, 44.0, 991.0, 738.0 ],
		"bgcolor" : [ 1.0, 1.0, 1.0, 0.0 ],
		"bglocked" : 0,
		"defrect" : [ 154.0, 44.0, 991.0, 738.0 ],
		"openrect" : [ 0.0, 0.0, 0.0, 0.0 ],
		"openinpresentation" : 1,
		"default_fontsize" : 12.0,
		"default_fontface" : 0,
		"default_fontname" : "Arial",
		"gridonopen" : 0,
		"gridsize" : [ 15.0, 15.0 ],
		"gridsnaponopen" : 0,
		"toolbarvisible" : 1,
		"boxanimatetime" : 200,
		"imprint" : 0,
		"enablehscroll" : 1,
		"enablevscroll" : 1,
		"devicewidth" : 0.0,
		"boxes" : [ 			{
				"box" : 				{
					"maxclass" : "inlet",
					"patching_rect" : [ 300.0, 15.0, 25.0, 25.0 ],
					"id" : "obj-10",
					"numinlets" : 0,
					"numoutlets" : 1,
					"outlettype" : [ "" ],
					"comment" : "randomize"
				}

			}
, 			{
				"box" : 				{
					"maxclass" : "comment",
					"text" : "The main control object in this patch is a multislider that can have between 1 and 32 sliders. Each slider is meant to represent an index in a 12-note scale, with 0 being the root note, and 12 being the octave. A chromatic scale is thus all notes between 0 and 12. Using this method, a major scale becomes the following sequence of scale indices: 0, 2, 4, 5, 7, 9, 11, 12.\n\nAll of the currently supported scales are represented in the \"scales\" subpatch, and each is generated by mapping the notes of the chromatic scale onto the desired target scale. Hence, when the \"randomize\" bang happens, each mutlislider takes on only values allowed in the target scale.\n\nThe index of each slider along with its value are stored in a funbuff so they may be recalled by their indices later. The incoming step number acts as an index into this funbuff, and chooses the slider value at that index to send to the output.\n\nEvery time the multislider is adjusted, the funbuff is completely cleared and repopulated.",
					"linecount" : 20,
					"patching_rect" : [ 600.0, 15.0, 372.0, 282.0 ],
					"id" : "obj-11",
					"numinlets" : 1,
					"fontname" : "Arial",
					"numoutlets" : 0,
					"fontsize" : 12.0
				}

			}
, 			{
				"box" : 				{
					"maxclass" : "newobj",
					"text" : "- 1",
					"patching_rect" : [ 570.0, 525.0, 32.5, 20.0 ],
					"id" : "obj-8",
					"numinlets" : 2,
					"fontname" : "Arial",
					"numoutlets" : 1,
					"outlettype" : [ "int" ],
					"fontsize" : 12.0
				}

			}
, 			{
				"box" : 				{
					"maxclass" : "message",
					"text" : "16",
					"patching_rect" : [ 105.0, 45.0, 32.5, 18.0 ],
					"id" : "obj-9",
					"numinlets" : 2,
					"fontname" : "Arial",
					"numoutlets" : 1,
					"outlettype" : [ "" ],
					"fontsize" : 12.0
				}

			}
, 			{
				"box" : 				{
					"maxclass" : "newobj",
					"text" : "loadbang",
					"patching_rect" : [ 105.0, 15.0, 60.0, 20.0 ],
					"id" : "obj-4",
					"numinlets" : 1,
					"fontname" : "Arial",
					"numoutlets" : 1,
					"outlettype" : [ "bang" ],
					"fontsize" : 12.0
				}

			}
, 			{
				"box" : 				{
					"maxclass" : "message",
					"text" : "0",
					"patching_rect" : [ 465.0, 90.0, 32.5, 18.0 ],
					"id" : "obj-6",
					"numinlets" : 2,
					"fontname" : "Arial",
					"numoutlets" : 1,
					"outlettype" : [ "" ],
					"fontsize" : 12.0
				}

			}
, 			{
				"box" : 				{
					"maxclass" : "newobj",
					"text" : "loadbang",
					"patching_rect" : [ 465.0, 60.0, 60.0, 20.0 ],
					"id" : "obj-2",
					"numinlets" : 1,
					"fontname" : "Arial",
					"numoutlets" : 1,
					"outlettype" : [ "bang" ],
					"fontsize" : 12.0
				}

			}
, 			{
				"box" : 				{
					"maxclass" : "outlet",
					"patching_rect" : [ 15.0, 705.0, 25.0, 25.0 ],
					"id" : "obj-224",
					"numinlets" : 1,
					"numoutlets" : 0,
					"comment" : "slider value"
				}

			}
, 			{
				"box" : 				{
					"maxclass" : "newobj",
					"text" : "+ 1",
					"patching_rect" : [ 465.0, 180.0, 32.5, 20.0 ],
					"id" : "obj-213",
					"numinlets" : 2,
					"fontname" : "Arial",
					"numoutlets" : 1,
					"outlettype" : [ "int" ],
					"fontsize" : 12.0
				}

			}
, 			{
				"box" : 				{
					"maxclass" : "umenu",
					"types" : [  ],
					"patching_rect" : [ 465.0, 150.0, 100.0, 20.0 ],
					"id" : "obj-210",
					"presentation" : 1,
					"numinlets" : 1,
					"fontname" : "Arial",
					"numoutlets" : 3,
					"items" : [ "chromatic", ",", "major", "(ionian)", ",", "minor", "(aeolian)", ",", "pentatonic", "ionian", ",", "pentatonic", "aeolian" ],
					"presentation_rect" : [ 3.0, 24.0, 147.0, 20.0 ],
					"outlettype" : [ "int", "", "" ],
					"fontsize" : 12.0
				}

			}
, 			{
				"box" : 				{
					"maxclass" : "newobj",
					"text" : "p scales",
					"patching_rect" : [ 386.0, 210.0, 98.0, 20.0 ],
					"id" : "obj-209",
					"numinlets" : 2,
					"fontname" : "Arial",
					"numoutlets" : 1,
					"outlettype" : [ "" ],
					"fontsize" : 12.0,
					"patcher" : 					{
						"fileversion" : 1,
						"rect" : [ 25.0, 69.0, 1150.0, 662.0 ],
						"bglocked" : 0,
						"defrect" : [ 25.0, 69.0, 1150.0, 662.0 ],
						"openrect" : [ 0.0, 0.0, 0.0, 0.0 ],
						"openinpresentation" : 0,
						"default_fontsize" : 12.0,
						"default_fontface" : 0,
						"default_fontname" : "Arial",
						"gridonopen" : 0,
						"gridsize" : [ 15.0, 15.0 ],
						"gridsnaponopen" : 0,
						"toolbarvisible" : 1,
						"boxanimatetime" : 200,
						"imprint" : 0,
						"enablehscroll" : 1,
						"enablevscroll" : 1,
						"devicewidth" : 0.0,
						"boxes" : [ 							{
								"box" : 								{
									"maxclass" : "message",
									"text" : "5",
									"patching_rect" : [ 2295.0, 105.0, 32.5, 18.0 ],
									"id" : "obj-39",
									"numinlets" : 2,
									"fontname" : "Arial",
									"numoutlets" : 1,
									"outlettype" : [ "" ],
									"fontsize" : 12.0
								}

							}
, 							{
								"box" : 								{
									"maxclass" : "message",
									"text" : "12",
									"patching_rect" : [ 2565.0, 105.0, 32.5, 18.0 ],
									"id" : "obj-40",
									"numinlets" : 2,
									"fontname" : "Arial",
									"numoutlets" : 1,
									"outlettype" : [ "" ],
									"fontsize" : 12.0
								}

							}
, 							{
								"box" : 								{
									"maxclass" : "message",
									"text" : "12",
									"patching_rect" : [ 2520.0, 105.0, 32.5, 18.0 ],
									"id" : "obj-41",
									"numinlets" : 2,
									"fontname" : "Arial",
									"numoutlets" : 1,
									"outlettype" : [ "" ],
									"fontsize" : 12.0
								}

							}
, 							{
								"box" : 								{
									"maxclass" : "message",
									"text" : "10",
									"patching_rect" : [ 2475.0, 105.0, 32.5, 18.0 ],
									"id" : "obj-42",
									"numinlets" : 2,
									"fontname" : "Arial",
									"numoutlets" : 1,
									"outlettype" : [ "" ],
									"fontsize" : 12.0
								}

							}
, 							{
								"box" : 								{
									"maxclass" : "message",
									"text" : "10",
									"patching_rect" : [ 2430.0, 105.0, 32.5, 18.0 ],
									"id" : "obj-43",
									"numinlets" : 2,
									"fontname" : "Arial",
									"numoutlets" : 1,
									"outlettype" : [ "" ],
									"fontsize" : 12.0
								}

							}
, 							{
								"box" : 								{
									"maxclass" : "message",
									"text" : "8",
									"patching_rect" : [ 2385.0, 105.0, 32.5, 18.0 ],
									"id" : "obj-44",
									"numinlets" : 2,
									"fontname" : "Arial",
									"numoutlets" : 1,
									"outlettype" : [ "" ],
									"fontsize" : 12.0
								}

							}
, 							{
								"box" : 								{
									"maxclass" : "message",
									"text" : "8",
									"patching_rect" : [ 2340.0, 105.0, 32.5, 18.0 ],
									"id" : "obj-45",
									"numinlets" : 2,
									"fontname" : "Arial",
									"numoutlets" : 1,
									"outlettype" : [ "" ],
									"fontsize" : 12.0
								}

							}
, 							{
								"box" : 								{
									"maxclass" : "message",
									"text" : "5",
									"patching_rect" : [ 2250.0, 105.0, 32.5, 18.0 ],
									"id" : "obj-46",
									"numinlets" : 2,
									"fontname" : "Arial",
									"numoutlets" : 1,
									"outlettype" : [ "" ],
									"fontsize" : 12.0
								}

							}
, 							{
								"box" : 								{
									"maxclass" : "message",
									"text" : "3",
									"patching_rect" : [ 2205.0, 105.0, 32.5, 18.0 ],
									"id" : "obj-47",
									"numinlets" : 2,
									"fontname" : "Arial",
									"numoutlets" : 1,
									"outlettype" : [ "" ],
									"fontsize" : 12.0
								}

							}
, 							{
								"box" : 								{
									"maxclass" : "message",
									"text" : "3",
									"patching_rect" : [ 2160.0, 105.0, 32.5, 18.0 ],
									"id" : "obj-48",
									"numinlets" : 2,
									"fontname" : "Arial",
									"numoutlets" : 1,
									"outlettype" : [ "" ],
									"fontsize" : 12.0
								}

							}
, 							{
								"box" : 								{
									"maxclass" : "message",
									"text" : "0",
									"patching_rect" : [ 2115.0, 105.0, 32.5, 18.0 ],
									"id" : "obj-49",
									"numinlets" : 2,
									"fontname" : "Arial",
									"numoutlets" : 1,
									"outlettype" : [ "" ],
									"fontsize" : 12.0
								}

							}
, 							{
								"box" : 								{
									"maxclass" : "message",
									"text" : "0",
									"patching_rect" : [ 2070.0, 105.0, 32.5, 18.0 ],
									"id" : "obj-50",
									"numinlets" : 2,
									"fontname" : "Arial",
									"numoutlets" : 1,
									"outlettype" : [ "" ],
									"fontsize" : 12.0
								}

							}
, 							{
								"box" : 								{
									"maxclass" : "message",
									"text" : "0",
									"patching_rect" : [ 2025.0, 105.0, 32.5, 18.0 ],
									"id" : "obj-51",
									"numinlets" : 2,
									"fontname" : "Arial",
									"numoutlets" : 1,
									"outlettype" : [ "" ],
									"fontsize" : 12.0
								}

							}
, 							{
								"box" : 								{
									"maxclass" : "newobj",
									"text" : "select 0 1 2 3 4 5 6 7 8 9 10 11 12",
									"patching_rect" : [ 2025.0, 75.0, 604.5, 20.0 ],
									"id" : "obj-52",
									"numinlets" : 1,
									"fontname" : "Arial",
									"numoutlets" : 14,
									"outlettype" : [ "bang", "bang", "bang", "bang", "bang", "bang", "bang", "bang", "bang", "bang", "bang", "bang", "bang", "" ],
									"fontsize" : 12.0
								}

							}
, 							{
								"box" : 								{
									"maxclass" : "comment",
									"text" : "map chromatic scale to penatonic aeolian",
									"patching_rect" : [ 2190.0, 47.0, 236.0, 20.0 ],
									"id" : "obj-38",
									"numinlets" : 1,
									"fontname" : "Arial",
									"numoutlets" : 0,
									"fontsize" : 12.0
								}

							}
, 							{
								"box" : 								{
									"maxclass" : "comment",
									"text" : "map chromatic scale to aeolian (minor)",
									"patching_rect" : [ 960.0, 47.0, 215.0, 20.0 ],
									"id" : "obj-23",
									"numinlets" : 1,
									"fontname" : "Arial",
									"numoutlets" : 0,
									"fontsize" : 12.0
								}

							}
, 							{
								"box" : 								{
									"maxclass" : "message",
									"text" : "5",
									"patching_rect" : [ 1065.0, 105.0, 32.5, 18.0 ],
									"id" : "obj-24",
									"numinlets" : 2,
									"fontname" : "Arial",
									"numoutlets" : 1,
									"outlettype" : [ "" ],
									"fontsize" : 12.0
								}

							}
, 							{
								"box" : 								{
									"maxclass" : "message",
									"text" : "12",
									"patching_rect" : [ 1335.0, 105.0, 32.5, 18.0 ],
									"id" : "obj-25",
									"numinlets" : 2,
									"fontname" : "Arial",
									"numoutlets" : 1,
									"outlettype" : [ "" ],
									"fontsize" : 12.0
								}

							}
, 							{
								"box" : 								{
									"maxclass" : "message",
									"text" : "10",
									"patching_rect" : [ 1290.0, 105.0, 32.5, 18.0 ],
									"id" : "obj-26",
									"numinlets" : 2,
									"fontname" : "Arial",
									"numoutlets" : 1,
									"outlettype" : [ "" ],
									"fontsize" : 12.0
								}

							}
, 							{
								"box" : 								{
									"maxclass" : "message",
									"text" : "10",
									"patching_rect" : [ 1245.0, 105.0, 32.5, 18.0 ],
									"id" : "obj-27",
									"numinlets" : 2,
									"fontname" : "Arial",
									"numoutlets" : 1,
									"outlettype" : [ "" ],
									"fontsize" : 12.0
								}

							}
, 							{
								"box" : 								{
									"maxclass" : "message",
									"text" : "8",
									"patching_rect" : [ 1200.0, 105.0, 32.5, 18.0 ],
									"id" : "obj-28",
									"numinlets" : 2,
									"fontname" : "Arial",
									"numoutlets" : 1,
									"outlettype" : [ "" ],
									"fontsize" : 12.0
								}

							}
, 							{
								"box" : 								{
									"maxclass" : "message",
									"text" : "8",
									"patching_rect" : [ 1155.0, 105.0, 32.5, 18.0 ],
									"id" : "obj-29",
									"numinlets" : 2,
									"fontname" : "Arial",
									"numoutlets" : 1,
									"outlettype" : [ "" ],
									"fontsize" : 12.0
								}

							}
, 							{
								"box" : 								{
									"maxclass" : "message",
									"text" : "7",
									"patching_rect" : [ 1110.0, 105.0, 32.5, 18.0 ],
									"id" : "obj-30",
									"numinlets" : 2,
									"fontname" : "Arial",
									"numoutlets" : 1,
									"outlettype" : [ "" ],
									"fontsize" : 12.0
								}

							}
, 							{
								"box" : 								{
									"maxclass" : "message",
									"text" : "5",
									"patching_rect" : [ 1020.0, 105.0, 32.5, 18.0 ],
									"id" : "obj-31",
									"numinlets" : 2,
									"fontname" : "Arial",
									"numoutlets" : 1,
									"outlettype" : [ "" ],
									"fontsize" : 12.0
								}

							}
, 							{
								"box" : 								{
									"maxclass" : "message",
									"text" : "3",
									"patching_rect" : [ 975.0, 105.0, 32.5, 18.0 ],
									"id" : "obj-32",
									"numinlets" : 2,
									"fontname" : "Arial",
									"numoutlets" : 1,
									"outlettype" : [ "" ],
									"fontsize" : 12.0
								}

							}
, 							{
								"box" : 								{
									"maxclass" : "message",
									"text" : "3",
									"patching_rect" : [ 930.0, 105.0, 32.5, 18.0 ],
									"id" : "obj-33",
									"numinlets" : 2,
									"fontname" : "Arial",
									"numoutlets" : 1,
									"outlettype" : [ "" ],
									"fontsize" : 12.0
								}

							}
, 							{
								"box" : 								{
									"maxclass" : "message",
									"text" : "2",
									"patching_rect" : [ 885.0, 105.0, 32.5, 18.0 ],
									"id" : "obj-34",
									"numinlets" : 2,
									"fontname" : "Arial",
									"numoutlets" : 1,
									"outlettype" : [ "" ],
									"fontsize" : 12.0
								}

							}
, 							{
								"box" : 								{
									"maxclass" : "message",
									"text" : "0",
									"patching_rect" : [ 840.0, 105.0, 32.5, 18.0 ],
									"id" : "obj-35",
									"numinlets" : 2,
									"fontname" : "Arial",
									"numoutlets" : 1,
									"outlettype" : [ "" ],
									"fontsize" : 12.0
								}

							}
, 							{
								"box" : 								{
									"maxclass" : "message",
									"text" : "0",
									"patching_rect" : [ 795.0, 105.0, 32.5, 18.0 ],
									"id" : "obj-36",
									"numinlets" : 2,
									"fontname" : "Arial",
									"numoutlets" : 1,
									"outlettype" : [ "" ],
									"fontsize" : 12.0
								}

							}
, 							{
								"box" : 								{
									"maxclass" : "newobj",
									"text" : "select 0 1 2 3 4 5 6 7 8 9 10 11 12",
									"patching_rect" : [ 795.0, 75.0, 604.5, 20.0 ],
									"id" : "obj-37",
									"numinlets" : 1,
									"fontname" : "Arial",
									"numoutlets" : 14,
									"outlettype" : [ "bang", "bang", "bang", "bang", "bang", "bang", "bang", "bang", "bang", "bang", "bang", "bang", "bang", "" ],
									"fontsize" : 12.0
								}

							}
, 							{
								"box" : 								{
									"maxclass" : "comment",
									"text" : "map chromatic scale to ionian (major)",
									"patching_rect" : [ 345.0, 47.0, 211.0, 20.0 ],
									"id" : "obj-8",
									"numinlets" : 1,
									"fontname" : "Arial",
									"numoutlets" : 0,
									"fontsize" : 12.0
								}

							}
, 							{
								"box" : 								{
									"maxclass" : "message",
									"text" : "5",
									"patching_rect" : [ 450.0, 105.0, 32.5, 18.0 ],
									"id" : "obj-9",
									"numinlets" : 2,
									"fontname" : "Arial",
									"numoutlets" : 1,
									"outlettype" : [ "" ],
									"fontsize" : 12.0
								}

							}
, 							{
								"box" : 								{
									"maxclass" : "message",
									"text" : "12",
									"patching_rect" : [ 720.0, 105.0, 32.5, 18.0 ],
									"id" : "obj-10",
									"numinlets" : 2,
									"fontname" : "Arial",
									"numoutlets" : 1,
									"outlettype" : [ "" ],
									"fontsize" : 12.0
								}

							}
, 							{
								"box" : 								{
									"maxclass" : "message",
									"text" : "11",
									"patching_rect" : [ 675.0, 105.0, 32.5, 18.0 ],
									"id" : "obj-11",
									"numinlets" : 2,
									"fontname" : "Arial",
									"numoutlets" : 1,
									"outlettype" : [ "" ],
									"fontsize" : 12.0
								}

							}
, 							{
								"box" : 								{
									"maxclass" : "message",
									"text" : "9",
									"patching_rect" : [ 630.0, 105.0, 32.5, 18.0 ],
									"id" : "obj-12",
									"numinlets" : 2,
									"fontname" : "Arial",
									"numoutlets" : 1,
									"outlettype" : [ "" ],
									"fontsize" : 12.0
								}

							}
, 							{
								"box" : 								{
									"maxclass" : "message",
									"text" : "9",
									"patching_rect" : [ 585.0, 105.0, 32.5, 18.0 ],
									"id" : "obj-13",
									"numinlets" : 2,
									"fontname" : "Arial",
									"numoutlets" : 1,
									"outlettype" : [ "" ],
									"fontsize" : 12.0
								}

							}
, 							{
								"box" : 								{
									"maxclass" : "message",
									"text" : "7",
									"patching_rect" : [ 540.0, 105.0, 32.5, 18.0 ],
									"id" : "obj-14",
									"numinlets" : 2,
									"fontname" : "Arial",
									"numoutlets" : 1,
									"outlettype" : [ "" ],
									"fontsize" : 12.0
								}

							}
, 							{
								"box" : 								{
									"maxclass" : "message",
									"text" : "7",
									"patching_rect" : [ 495.0, 105.0, 32.5, 18.0 ],
									"id" : "obj-15",
									"numinlets" : 2,
									"fontname" : "Arial",
									"numoutlets" : 1,
									"outlettype" : [ "" ],
									"fontsize" : 12.0
								}

							}
, 							{
								"box" : 								{
									"maxclass" : "message",
									"text" : "5",
									"patching_rect" : [ 405.0, 105.0, 32.5, 18.0 ],
									"id" : "obj-16",
									"numinlets" : 2,
									"fontname" : "Arial",
									"numoutlets" : 1,
									"outlettype" : [ "" ],
									"fontsize" : 12.0
								}

							}
, 							{
								"box" : 								{
									"maxclass" : "message",
									"text" : "4",
									"patching_rect" : [ 360.0, 105.0, 32.5, 18.0 ],
									"id" : "obj-17",
									"numinlets" : 2,
									"fontname" : "Arial",
									"numoutlets" : 1,
									"outlettype" : [ "" ],
									"fontsize" : 12.0
								}

							}
, 							{
								"box" : 								{
									"maxclass" : "message",
									"text" : "2",
									"patching_rect" : [ 315.0, 105.0, 32.5, 18.0 ],
									"id" : "obj-18",
									"numinlets" : 2,
									"fontname" : "Arial",
									"numoutlets" : 1,
									"outlettype" : [ "" ],
									"fontsize" : 12.0
								}

							}
, 							{
								"box" : 								{
									"maxclass" : "message",
									"text" : "2",
									"patching_rect" : [ 270.0, 105.0, 32.5, 18.0 ],
									"id" : "obj-19",
									"numinlets" : 2,
									"fontname" : "Arial",
									"numoutlets" : 1,
									"outlettype" : [ "" ],
									"fontsize" : 12.0
								}

							}
, 							{
								"box" : 								{
									"maxclass" : "message",
									"text" : "0",
									"patching_rect" : [ 225.0, 105.0, 32.5, 18.0 ],
									"id" : "obj-20",
									"numinlets" : 2,
									"fontname" : "Arial",
									"numoutlets" : 1,
									"outlettype" : [ "" ],
									"fontsize" : 12.0
								}

							}
, 							{
								"box" : 								{
									"maxclass" : "message",
									"text" : "0",
									"patching_rect" : [ 180.0, 105.0, 32.5, 18.0 ],
									"id" : "obj-21",
									"numinlets" : 2,
									"fontname" : "Arial",
									"numoutlets" : 1,
									"outlettype" : [ "" ],
									"fontsize" : 12.0
								}

							}
, 							{
								"box" : 								{
									"maxclass" : "newobj",
									"text" : "select 0 1 2 3 4 5 6 7 8 9 10 11 12",
									"patching_rect" : [ 180.0, 75.0, 604.5, 20.0 ],
									"id" : "obj-22",
									"numinlets" : 1,
									"fontname" : "Arial",
									"numoutlets" : 14,
									"outlettype" : [ "bang", "bang", "bang", "bang", "bang", "bang", "bang", "bang", "bang", "bang", "bang", "bang", "bang", "" ],
									"fontsize" : 12.0
								}

							}
, 							{
								"box" : 								{
									"maxclass" : "inlet",
									"patching_rect" : [ 45.0, 300.0, 25.0, 25.0 ],
									"id" : "obj-7",
									"numinlets" : 0,
									"numoutlets" : 1,
									"outlettype" : [ "int" ],
									"comment" : ""
								}

							}
, 							{
								"box" : 								{
									"maxclass" : "newobj",
									"text" : "switch 5",
									"patching_rect" : [ 15.0, 420.0, 432.5, 20.0 ],
									"id" : "obj-3",
									"numinlets" : 6,
									"fontname" : "Arial",
									"numoutlets" : 1,
									"outlettype" : [ "" ],
									"fontsize" : 12.0
								}

							}
, 							{
								"box" : 								{
									"maxclass" : "outlet",
									"patching_rect" : [ 15.0, 450.0, 25.0, 25.0 ],
									"id" : "obj-2",
									"numinlets" : 1,
									"numoutlets" : 0,
									"comment" : ""
								}

							}
, 							{
								"box" : 								{
									"maxclass" : "inlet",
									"patching_rect" : [ 15.0, 30.0, 25.0, 25.0 ],
									"id" : "obj-1",
									"numinlets" : 0,
									"numoutlets" : 1,
									"outlettype" : [ "int" ],
									"comment" : ""
								}

							}
, 							{
								"box" : 								{
									"maxclass" : "comment",
									"text" : "map chromatic scale to penatonic ionoan",
									"patching_rect" : [ 1575.0, 47.0, 236.0, 20.0 ],
									"id" : "obj-208",
									"numinlets" : 1,
									"fontname" : "Arial",
									"numoutlets" : 0,
									"fontsize" : 12.0
								}

							}
, 							{
								"box" : 								{
									"maxclass" : "message",
									"text" : "7",
									"patching_rect" : [ 1680.0, 105.0, 32.5, 18.0 ],
									"id" : "obj-206",
									"numinlets" : 2,
									"fontname" : "Arial",
									"numoutlets" : 1,
									"outlettype" : [ "" ],
									"fontsize" : 12.0
								}

							}
, 							{
								"box" : 								{
									"maxclass" : "message",
									"text" : "12",
									"patching_rect" : [ 1950.0, 105.0, 32.5, 18.0 ],
									"id" : "obj-204",
									"numinlets" : 2,
									"fontname" : "Arial",
									"numoutlets" : 1,
									"outlettype" : [ "" ],
									"fontsize" : 12.0
								}

							}
, 							{
								"box" : 								{
									"maxclass" : "message",
									"text" : "12",
									"patching_rect" : [ 1905.0, 105.0, 32.5, 18.0 ],
									"id" : "obj-202",
									"numinlets" : 2,
									"fontname" : "Arial",
									"numoutlets" : 1,
									"outlettype" : [ "" ],
									"fontsize" : 12.0
								}

							}
, 							{
								"box" : 								{
									"maxclass" : "message",
									"text" : "9",
									"patching_rect" : [ 1860.0, 105.0, 32.5, 18.0 ],
									"id" : "obj-200",
									"numinlets" : 2,
									"fontname" : "Arial",
									"numoutlets" : 1,
									"outlettype" : [ "" ],
									"fontsize" : 12.0
								}

							}
, 							{
								"box" : 								{
									"maxclass" : "message",
									"text" : "9",
									"patching_rect" : [ 1815.0, 105.0, 32.5, 18.0 ],
									"id" : "obj-198",
									"numinlets" : 2,
									"fontname" : "Arial",
									"numoutlets" : 1,
									"outlettype" : [ "" ],
									"fontsize" : 12.0
								}

							}
, 							{
								"box" : 								{
									"maxclass" : "message",
									"text" : "7",
									"patching_rect" : [ 1770.0, 105.0, 32.5, 18.0 ],
									"id" : "obj-196",
									"numinlets" : 2,
									"fontname" : "Arial",
									"numoutlets" : 1,
									"outlettype" : [ "" ],
									"fontsize" : 12.0
								}

							}
, 							{
								"box" : 								{
									"maxclass" : "message",
									"text" : "7",
									"patching_rect" : [ 1725.0, 105.0, 32.5, 18.0 ],
									"id" : "obj-194",
									"numinlets" : 2,
									"fontname" : "Arial",
									"numoutlets" : 1,
									"outlettype" : [ "" ],
									"fontsize" : 12.0
								}

							}
, 							{
								"box" : 								{
									"maxclass" : "message",
									"text" : "4",
									"patching_rect" : [ 1635.0, 105.0, 32.5, 18.0 ],
									"id" : "obj-192",
									"numinlets" : 2,
									"fontname" : "Arial",
									"numoutlets" : 1,
									"outlettype" : [ "" ],
									"fontsize" : 12.0
								}

							}
, 							{
								"box" : 								{
									"maxclass" : "message",
									"text" : "4",
									"patching_rect" : [ 1590.0, 105.0, 32.5, 18.0 ],
									"id" : "obj-190",
									"numinlets" : 2,
									"fontname" : "Arial",
									"numoutlets" : 1,
									"outlettype" : [ "" ],
									"fontsize" : 12.0
								}

							}
, 							{
								"box" : 								{
									"maxclass" : "message",
									"text" : "2",
									"patching_rect" : [ 1545.0, 105.0, 32.5, 18.0 ],
									"id" : "obj-188",
									"numinlets" : 2,
									"fontname" : "Arial",
									"numoutlets" : 1,
									"outlettype" : [ "" ],
									"fontsize" : 12.0
								}

							}
, 							{
								"box" : 								{
									"maxclass" : "message",
									"text" : "2",
									"patching_rect" : [ 1500.0, 105.0, 32.5, 18.0 ],
									"id" : "obj-186",
									"numinlets" : 2,
									"fontname" : "Arial",
									"numoutlets" : 1,
									"outlettype" : [ "" ],
									"fontsize" : 12.0
								}

							}
, 							{
								"box" : 								{
									"maxclass" : "message",
									"text" : "0",
									"patching_rect" : [ 1455.0, 105.0, 32.5, 18.0 ],
									"id" : "obj-184",
									"numinlets" : 2,
									"fontname" : "Arial",
									"numoutlets" : 1,
									"outlettype" : [ "" ],
									"fontsize" : 12.0
								}

							}
, 							{
								"box" : 								{
									"maxclass" : "message",
									"text" : "0",
									"patching_rect" : [ 1410.0, 105.0, 32.5, 18.0 ],
									"id" : "obj-182",
									"numinlets" : 2,
									"fontname" : "Arial",
									"numoutlets" : 1,
									"outlettype" : [ "" ],
									"fontsize" : 12.0
								}

							}
, 							{
								"box" : 								{
									"maxclass" : "newobj",
									"text" : "select 0 1 2 3 4 5 6 7 8 9 10 11 12",
									"patching_rect" : [ 1410.0, 75.0, 604.5, 20.0 ],
									"id" : "obj-180",
									"numinlets" : 1,
									"fontname" : "Arial",
									"numoutlets" : 14,
									"outlettype" : [ "bang", "bang", "bang", "bang", "bang", "bang", "bang", "bang", "bang", "bang", "bang", "bang", "bang", "" ],
									"fontsize" : 12.0
								}

							}
 ],
						"lines" : [ 							{
								"patchline" : 								{
									"source" : [ "obj-180", 6 ],
									"destination" : [ "obj-206", 0 ],
									"hidden" : 0,
									"midpoints" : [  ]
								}

							}
, 							{
								"patchline" : 								{
									"source" : [ "obj-180", 12 ],
									"destination" : [ "obj-204", 0 ],
									"hidden" : 0,
									"midpoints" : [  ]
								}

							}
, 							{
								"patchline" : 								{
									"source" : [ "obj-180", 11 ],
									"destination" : [ "obj-202", 0 ],
									"hidden" : 0,
									"midpoints" : [  ]
								}

							}
, 							{
								"patchline" : 								{
									"source" : [ "obj-180", 10 ],
									"destination" : [ "obj-200", 0 ],
									"hidden" : 0,
									"midpoints" : [  ]
								}

							}
, 							{
								"patchline" : 								{
									"source" : [ "obj-180", 9 ],
									"destination" : [ "obj-198", 0 ],
									"hidden" : 0,
									"midpoints" : [  ]
								}

							}
, 							{
								"patchline" : 								{
									"source" : [ "obj-180", 8 ],
									"destination" : [ "obj-196", 0 ],
									"hidden" : 0,
									"midpoints" : [  ]
								}

							}
, 							{
								"patchline" : 								{
									"source" : [ "obj-180", 7 ],
									"destination" : [ "obj-194", 0 ],
									"hidden" : 0,
									"midpoints" : [  ]
								}

							}
, 							{
								"patchline" : 								{
									"source" : [ "obj-180", 5 ],
									"destination" : [ "obj-192", 0 ],
									"hidden" : 0,
									"midpoints" : [  ]
								}

							}
, 							{
								"patchline" : 								{
									"source" : [ "obj-180", 4 ],
									"destination" : [ "obj-190", 0 ],
									"hidden" : 0,
									"midpoints" : [  ]
								}

							}
, 							{
								"patchline" : 								{
									"source" : [ "obj-180", 3 ],
									"destination" : [ "obj-188", 0 ],
									"hidden" : 0,
									"midpoints" : [  ]
								}

							}
, 							{
								"patchline" : 								{
									"source" : [ "obj-180", 2 ],
									"destination" : [ "obj-186", 0 ],
									"hidden" : 0,
									"midpoints" : [  ]
								}

							}
, 							{
								"patchline" : 								{
									"source" : [ "obj-180", 1 ],
									"destination" : [ "obj-184", 0 ],
									"hidden" : 0,
									"midpoints" : [  ]
								}

							}
, 							{
								"patchline" : 								{
									"source" : [ "obj-180", 0 ],
									"destination" : [ "obj-182", 0 ],
									"hidden" : 0,
									"midpoints" : [  ]
								}

							}
, 							{
								"patchline" : 								{
									"source" : [ "obj-22", 0 ],
									"destination" : [ "obj-21", 0 ],
									"hidden" : 0,
									"midpoints" : [  ]
								}

							}
, 							{
								"patchline" : 								{
									"source" : [ "obj-22", 1 ],
									"destination" : [ "obj-20", 0 ],
									"hidden" : 0,
									"midpoints" : [  ]
								}

							}
, 							{
								"patchline" : 								{
									"source" : [ "obj-22", 2 ],
									"destination" : [ "obj-19", 0 ],
									"hidden" : 0,
									"midpoints" : [  ]
								}

							}
, 							{
								"patchline" : 								{
									"source" : [ "obj-22", 3 ],
									"destination" : [ "obj-18", 0 ],
									"hidden" : 0,
									"midpoints" : [  ]
								}

							}
, 							{
								"patchline" : 								{
									"source" : [ "obj-22", 4 ],
									"destination" : [ "obj-17", 0 ],
									"hidden" : 0,
									"midpoints" : [  ]
								}

							}
, 							{
								"patchline" : 								{
									"source" : [ "obj-22", 5 ],
									"destination" : [ "obj-16", 0 ],
									"hidden" : 0,
									"midpoints" : [  ]
								}

							}
, 							{
								"patchline" : 								{
									"source" : [ "obj-22", 7 ],
									"destination" : [ "obj-15", 0 ],
									"hidden" : 0,
									"midpoints" : [  ]
								}

							}
, 							{
								"patchline" : 								{
									"source" : [ "obj-22", 8 ],
									"destination" : [ "obj-14", 0 ],
									"hidden" : 0,
									"midpoints" : [  ]
								}

							}
, 							{
								"patchline" : 								{
									"source" : [ "obj-22", 9 ],
									"destination" : [ "obj-13", 0 ],
									"hidden" : 0,
									"midpoints" : [  ]
								}

							}
, 							{
								"patchline" : 								{
									"source" : [ "obj-22", 10 ],
									"destination" : [ "obj-12", 0 ],
									"hidden" : 0,
									"midpoints" : [  ]
								}

							}
, 							{
								"patchline" : 								{
									"source" : [ "obj-22", 11 ],
									"destination" : [ "obj-11", 0 ],
									"hidden" : 0,
									"midpoints" : [  ]
								}

							}
, 							{
								"patchline" : 								{
									"source" : [ "obj-22", 12 ],
									"destination" : [ "obj-10", 0 ],
									"hidden" : 0,
									"midpoints" : [  ]
								}

							}
, 							{
								"patchline" : 								{
									"source" : [ "obj-22", 6 ],
									"destination" : [ "obj-9", 0 ],
									"hidden" : 0,
									"midpoints" : [  ]
								}

							}
, 							{
								"patchline" : 								{
									"source" : [ "obj-37", 6 ],
									"destination" : [ "obj-24", 0 ],
									"hidden" : 0,
									"midpoints" : [  ]
								}

							}
, 							{
								"patchline" : 								{
									"source" : [ "obj-37", 12 ],
									"destination" : [ "obj-25", 0 ],
									"hidden" : 0,
									"midpoints" : [  ]
								}

							}
, 							{
								"patchline" : 								{
									"source" : [ "obj-37", 11 ],
									"destination" : [ "obj-26", 0 ],
									"hidden" : 0,
									"midpoints" : [  ]
								}

							}
, 							{
								"patchline" : 								{
									"source" : [ "obj-37", 10 ],
									"destination" : [ "obj-27", 0 ],
									"hidden" : 0,
									"midpoints" : [  ]
								}

							}
, 							{
								"patchline" : 								{
									"source" : [ "obj-37", 9 ],
									"destination" : [ "obj-28", 0 ],
									"hidden" : 0,
									"midpoints" : [  ]
								}

							}
, 							{
								"patchline" : 								{
									"source" : [ "obj-37", 8 ],
									"destination" : [ "obj-29", 0 ],
									"hidden" : 0,
									"midpoints" : [  ]
								}

							}
, 							{
								"patchline" : 								{
									"source" : [ "obj-37", 7 ],
									"destination" : [ "obj-30", 0 ],
									"hidden" : 0,
									"midpoints" : [  ]
								}

							}
, 							{
								"patchline" : 								{
									"source" : [ "obj-37", 5 ],
									"destination" : [ "obj-31", 0 ],
									"hidden" : 0,
									"midpoints" : [  ]
								}

							}
, 							{
								"patchline" : 								{
									"source" : [ "obj-37", 4 ],
									"destination" : [ "obj-32", 0 ],
									"hidden" : 0,
									"midpoints" : [  ]
								}

							}
, 							{
								"patchline" : 								{
									"source" : [ "obj-37", 3 ],
									"destination" : [ "obj-33", 0 ],
									"hidden" : 0,
									"midpoints" : [  ]
								}

							}
, 							{
								"patchline" : 								{
									"source" : [ "obj-37", 2 ],
									"destination" : [ "obj-34", 0 ],
									"hidden" : 0,
									"midpoints" : [  ]
								}

							}
, 							{
								"patchline" : 								{
									"source" : [ "obj-37", 1 ],
									"destination" : [ "obj-35", 0 ],
									"hidden" : 0,
									"midpoints" : [  ]
								}

							}
, 							{
								"patchline" : 								{
									"source" : [ "obj-37", 0 ],
									"destination" : [ "obj-36", 0 ],
									"hidden" : 0,
									"midpoints" : [  ]
								}

							}
, 							{
								"patchline" : 								{
									"source" : [ "obj-52", 0 ],
									"destination" : [ "obj-51", 0 ],
									"hidden" : 0,
									"midpoints" : [  ]
								}

							}
, 							{
								"patchline" : 								{
									"source" : [ "obj-52", 1 ],
									"destination" : [ "obj-50", 0 ],
									"hidden" : 0,
									"midpoints" : [  ]
								}

							}
, 							{
								"patchline" : 								{
									"source" : [ "obj-52", 2 ],
									"destination" : [ "obj-49", 0 ],
									"hidden" : 0,
									"midpoints" : [  ]
								}

							}
, 							{
								"patchline" : 								{
									"source" : [ "obj-52", 3 ],
									"destination" : [ "obj-48", 0 ],
									"hidden" : 0,
									"midpoints" : [  ]
								}

							}
, 							{
								"patchline" : 								{
									"source" : [ "obj-52", 4 ],
									"destination" : [ "obj-47", 0 ],
									"hidden" : 0,
									"midpoints" : [  ]
								}

							}
, 							{
								"patchline" : 								{
									"source" : [ "obj-52", 5 ],
									"destination" : [ "obj-46", 0 ],
									"hidden" : 0,
									"midpoints" : [  ]
								}

							}
, 							{
								"patchline" : 								{
									"source" : [ "obj-52", 7 ],
									"destination" : [ "obj-45", 0 ],
									"hidden" : 0,
									"midpoints" : [  ]
								}

							}
, 							{
								"patchline" : 								{
									"source" : [ "obj-52", 8 ],
									"destination" : [ "obj-44", 0 ],
									"hidden" : 0,
									"midpoints" : [  ]
								}

							}
, 							{
								"patchline" : 								{
									"source" : [ "obj-52", 9 ],
									"destination" : [ "obj-43", 0 ],
									"hidden" : 0,
									"midpoints" : [  ]
								}

							}
, 							{
								"patchline" : 								{
									"source" : [ "obj-52", 10 ],
									"destination" : [ "obj-42", 0 ],
									"hidden" : 0,
									"midpoints" : [  ]
								}

							}
, 							{
								"patchline" : 								{
									"source" : [ "obj-52", 11 ],
									"destination" : [ "obj-41", 0 ],
									"hidden" : 0,
									"midpoints" : [  ]
								}

							}
, 							{
								"patchline" : 								{
									"source" : [ "obj-52", 12 ],
									"destination" : [ "obj-40", 0 ],
									"hidden" : 0,
									"midpoints" : [  ]
								}

							}
, 							{
								"patchline" : 								{
									"source" : [ "obj-52", 6 ],
									"destination" : [ "obj-39", 0 ],
									"hidden" : 0,
									"midpoints" : [  ]
								}

							}
, 							{
								"patchline" : 								{
									"source" : [ "obj-1", 0 ],
									"destination" : [ "obj-3", 1 ],
									"hidden" : 0,
									"midpoints" : [ 24.5, 372.0, 107.199997, 372.0 ]
								}

							}
, 							{
								"patchline" : 								{
									"source" : [ "obj-3", 0 ],
									"destination" : [ "obj-2", 0 ],
									"hidden" : 0,
									"midpoints" : [  ]
								}

							}
, 							{
								"patchline" : 								{
									"source" : [ "obj-7", 0 ],
									"destination" : [ "obj-3", 0 ],
									"hidden" : 0,
									"midpoints" : [ 54.5, 405.0, 24.5, 405.0 ]
								}

							}
, 							{
								"patchline" : 								{
									"source" : [ "obj-21", 0 ],
									"destination" : [ "obj-3", 2 ],
									"hidden" : 0,
									"midpoints" : [ 189.5, 406.0, 189.899994, 406.0 ]
								}

							}
, 							{
								"patchline" : 								{
									"source" : [ "obj-20", 0 ],
									"destination" : [ "obj-3", 2 ],
									"hidden" : 0,
									"midpoints" : [ 234.5, 406.0, 189.899994, 406.0 ]
								}

							}
, 							{
								"patchline" : 								{
									"source" : [ "obj-19", 0 ],
									"destination" : [ "obj-3", 2 ],
									"hidden" : 0,
									"midpoints" : [ 279.5, 406.0, 189.899994, 406.0 ]
								}

							}
, 							{
								"patchline" : 								{
									"source" : [ "obj-18", 0 ],
									"destination" : [ "obj-3", 2 ],
									"hidden" : 0,
									"midpoints" : [ 324.5, 406.0, 189.899994, 406.0 ]
								}

							}
, 							{
								"patchline" : 								{
									"source" : [ "obj-17", 0 ],
									"destination" : [ "obj-3", 2 ],
									"hidden" : 0,
									"midpoints" : [ 369.5, 406.0, 189.899994, 406.0 ]
								}

							}
, 							{
								"patchline" : 								{
									"source" : [ "obj-16", 0 ],
									"destination" : [ "obj-3", 2 ],
									"hidden" : 0,
									"midpoints" : [ 414.5, 406.0, 189.899994, 406.0 ]
								}

							}
, 							{
								"patchline" : 								{
									"source" : [ "obj-9", 0 ],
									"destination" : [ "obj-3", 2 ],
									"hidden" : 0,
									"midpoints" : [ 459.5, 406.0, 189.899994, 406.0 ]
								}

							}
, 							{
								"patchline" : 								{
									"source" : [ "obj-15", 0 ],
									"destination" : [ "obj-3", 2 ],
									"hidden" : 0,
									"midpoints" : [ 504.5, 406.0, 189.899994, 406.0 ]
								}

							}
, 							{
								"patchline" : 								{
									"source" : [ "obj-14", 0 ],
									"destination" : [ "obj-3", 2 ],
									"hidden" : 0,
									"midpoints" : [ 549.5, 406.0, 189.899994, 406.0 ]
								}

							}
, 							{
								"patchline" : 								{
									"source" : [ "obj-13", 0 ],
									"destination" : [ "obj-3", 2 ],
									"hidden" : 0,
									"midpoints" : [ 594.5, 406.0, 189.899994, 406.0 ]
								}

							}
, 							{
								"patchline" : 								{
									"source" : [ "obj-12", 0 ],
									"destination" : [ "obj-3", 2 ],
									"hidden" : 0,
									"midpoints" : [ 639.5, 406.0, 189.899994, 406.0 ]
								}

							}
, 							{
								"patchline" : 								{
									"source" : [ "obj-11", 0 ],
									"destination" : [ "obj-3", 2 ],
									"hidden" : 0,
									"midpoints" : [ 684.5, 406.0, 189.899994, 406.0 ]
								}

							}
, 							{
								"patchline" : 								{
									"source" : [ "obj-10", 0 ],
									"destination" : [ "obj-3", 2 ],
									"hidden" : 0,
									"midpoints" : [ 729.5, 406.0, 189.899994, 406.0 ]
								}

							}
, 							{
								"patchline" : 								{
									"source" : [ "obj-36", 0 ],
									"destination" : [ "obj-3", 3 ],
									"hidden" : 0,
									"midpoints" : [ 804.5, 391.0, 272.600006, 391.0 ]
								}

							}
, 							{
								"patchline" : 								{
									"source" : [ "obj-35", 0 ],
									"destination" : [ "obj-3", 3 ],
									"hidden" : 0,
									"midpoints" : [ 849.5, 391.0, 272.600006, 391.0 ]
								}

							}
, 							{
								"patchline" : 								{
									"source" : [ "obj-34", 0 ],
									"destination" : [ "obj-3", 3 ],
									"hidden" : 0,
									"midpoints" : [ 894.5, 391.0, 272.600006, 391.0 ]
								}

							}
, 							{
								"patchline" : 								{
									"source" : [ "obj-33", 0 ],
									"destination" : [ "obj-3", 3 ],
									"hidden" : 0,
									"midpoints" : [ 939.5, 391.0, 272.600006, 391.0 ]
								}

							}
, 							{
								"patchline" : 								{
									"source" : [ "obj-32", 0 ],
									"destination" : [ "obj-3", 3 ],
									"hidden" : 0,
									"midpoints" : [ 984.5, 391.0, 272.600006, 391.0 ]
								}

							}
, 							{
								"patchline" : 								{
									"source" : [ "obj-31", 0 ],
									"destination" : [ "obj-3", 3 ],
									"hidden" : 0,
									"midpoints" : [ 1029.5, 391.0, 272.600006, 391.0 ]
								}

							}
, 							{
								"patchline" : 								{
									"source" : [ "obj-24", 0 ],
									"destination" : [ "obj-3", 3 ],
									"hidden" : 0,
									"midpoints" : [ 1074.5, 391.0, 272.600006, 391.0 ]
								}

							}
, 							{
								"patchline" : 								{
									"source" : [ "obj-30", 0 ],
									"destination" : [ "obj-3", 3 ],
									"hidden" : 0,
									"midpoints" : [ 1119.5, 391.0, 272.600006, 391.0 ]
								}

							}
, 							{
								"patchline" : 								{
									"source" : [ "obj-29", 0 ],
									"destination" : [ "obj-3", 3 ],
									"hidden" : 0,
									"midpoints" : [ 1164.5, 391.0, 272.600006, 391.0 ]
								}

							}
, 							{
								"patchline" : 								{
									"source" : [ "obj-28", 0 ],
									"destination" : [ "obj-3", 3 ],
									"hidden" : 0,
									"midpoints" : [ 1209.5, 391.0, 272.600006, 391.0 ]
								}

							}
, 							{
								"patchline" : 								{
									"source" : [ "obj-27", 0 ],
									"destination" : [ "obj-3", 3 ],
									"hidden" : 0,
									"midpoints" : [ 1254.5, 391.0, 272.600006, 391.0 ]
								}

							}
, 							{
								"patchline" : 								{
									"source" : [ "obj-26", 0 ],
									"destination" : [ "obj-3", 3 ],
									"hidden" : 0,
									"midpoints" : [ 1299.5, 391.0, 272.600006, 391.0 ]
								}

							}
, 							{
								"patchline" : 								{
									"source" : [ "obj-25", 0 ],
									"destination" : [ "obj-3", 3 ],
									"hidden" : 0,
									"midpoints" : [ 1344.5, 391.0, 272.600006, 391.0 ]
								}

							}
, 							{
								"patchline" : 								{
									"source" : [ "obj-182", 0 ],
									"destination" : [ "obj-3", 4 ],
									"hidden" : 0,
									"midpoints" : [ 1419.5, 376.0, 355.299988, 376.0 ]
								}

							}
, 							{
								"patchline" : 								{
									"source" : [ "obj-184", 0 ],
									"destination" : [ "obj-3", 4 ],
									"hidden" : 0,
									"midpoints" : [ 1464.5, 376.0, 355.299988, 376.0 ]
								}

							}
, 							{
								"patchline" : 								{
									"source" : [ "obj-186", 0 ],
									"destination" : [ "obj-3", 4 ],
									"hidden" : 0,
									"midpoints" : [ 1509.5, 376.0, 355.299988, 376.0 ]
								}

							}
, 							{
								"patchline" : 								{
									"source" : [ "obj-188", 0 ],
									"destination" : [ "obj-3", 4 ],
									"hidden" : 0,
									"midpoints" : [ 1554.5, 376.0, 355.299988, 376.0 ]
								}

							}
, 							{
								"patchline" : 								{
									"source" : [ "obj-190", 0 ],
									"destination" : [ "obj-3", 4 ],
									"hidden" : 0,
									"midpoints" : [ 1599.5, 376.0, 355.299988, 376.0 ]
								}

							}
, 							{
								"patchline" : 								{
									"source" : [ "obj-192", 0 ],
									"destination" : [ "obj-3", 4 ],
									"hidden" : 0,
									"midpoints" : [ 1644.5, 376.0, 355.299988, 376.0 ]
								}

							}
, 							{
								"patchline" : 								{
									"source" : [ "obj-206", 0 ],
									"destination" : [ "obj-3", 4 ],
									"hidden" : 0,
									"midpoints" : [ 1689.5, 376.0, 355.299988, 376.0 ]
								}

							}
, 							{
								"patchline" : 								{
									"source" : [ "obj-194", 0 ],
									"destination" : [ "obj-3", 4 ],
									"hidden" : 0,
									"midpoints" : [ 1734.5, 376.0, 355.299988, 376.0 ]
								}

							}
, 							{
								"patchline" : 								{
									"source" : [ "obj-196", 0 ],
									"destination" : [ "obj-3", 4 ],
									"hidden" : 0,
									"midpoints" : [ 1779.5, 376.0, 355.299988, 376.0 ]
								}

							}
, 							{
								"patchline" : 								{
									"source" : [ "obj-198", 0 ],
									"destination" : [ "obj-3", 4 ],
									"hidden" : 0,
									"midpoints" : [ 1824.5, 376.0, 355.299988, 376.0 ]
								}

							}
, 							{
								"patchline" : 								{
									"source" : [ "obj-200", 0 ],
									"destination" : [ "obj-3", 4 ],
									"hidden" : 0,
									"midpoints" : [ 1869.5, 376.0, 355.299988, 376.0 ]
								}

							}
, 							{
								"patchline" : 								{
									"source" : [ "obj-202", 0 ],
									"destination" : [ "obj-3", 4 ],
									"hidden" : 0,
									"midpoints" : [ 1914.5, 376.0, 355.299988, 376.0 ]
								}

							}
, 							{
								"patchline" : 								{
									"source" : [ "obj-204", 0 ],
									"destination" : [ "obj-3", 4 ],
									"hidden" : 0,
									"midpoints" : [ 1959.5, 376.0, 355.299988, 376.0 ]
								}

							}
, 							{
								"patchline" : 								{
									"source" : [ "obj-51", 0 ],
									"destination" : [ "obj-3", 5 ],
									"hidden" : 0,
									"midpoints" : [ 2034.5, 361.0, 438.0, 361.0 ]
								}

							}
, 							{
								"patchline" : 								{
									"source" : [ "obj-50", 0 ],
									"destination" : [ "obj-3", 5 ],
									"hidden" : 0,
									"midpoints" : [ 2079.5, 361.0, 438.0, 361.0 ]
								}

							}
, 							{
								"patchline" : 								{
									"source" : [ "obj-49", 0 ],
									"destination" : [ "obj-3", 5 ],
									"hidden" : 0,
									"midpoints" : [ 2124.5, 361.0, 438.0, 361.0 ]
								}

							}
, 							{
								"patchline" : 								{
									"source" : [ "obj-48", 0 ],
									"destination" : [ "obj-3", 5 ],
									"hidden" : 0,
									"midpoints" : [ 2169.5, 361.0, 438.0, 361.0 ]
								}

							}
, 							{
								"patchline" : 								{
									"source" : [ "obj-47", 0 ],
									"destination" : [ "obj-3", 5 ],
									"hidden" : 0,
									"midpoints" : [ 2214.5, 361.0, 438.0, 361.0 ]
								}

							}
, 							{
								"patchline" : 								{
									"source" : [ "obj-46", 0 ],
									"destination" : [ "obj-3", 5 ],
									"hidden" : 0,
									"midpoints" : [ 2259.5, 361.0, 438.0, 361.0 ]
								}

							}
, 							{
								"patchline" : 								{
									"source" : [ "obj-39", 0 ],
									"destination" : [ "obj-3", 5 ],
									"hidden" : 0,
									"midpoints" : [ 2304.5, 361.0, 438.0, 361.0 ]
								}

							}
, 							{
								"patchline" : 								{
									"source" : [ "obj-45", 0 ],
									"destination" : [ "obj-3", 5 ],
									"hidden" : 0,
									"midpoints" : [ 2349.5, 361.0, 438.0, 361.0 ]
								}

							}
, 							{
								"patchline" : 								{
									"source" : [ "obj-44", 0 ],
									"destination" : [ "obj-3", 5 ],
									"hidden" : 0,
									"midpoints" : [ 2394.5, 361.0, 438.0, 361.0 ]
								}

							}
, 							{
								"patchline" : 								{
									"source" : [ "obj-43", 0 ],
									"destination" : [ "obj-3", 5 ],
									"hidden" : 0,
									"midpoints" : [ 2439.5, 361.0, 438.0, 361.0 ]
								}

							}
, 							{
								"patchline" : 								{
									"source" : [ "obj-42", 0 ],
									"destination" : [ "obj-3", 5 ],
									"hidden" : 0,
									"midpoints" : [ 2484.5, 361.0, 438.0, 361.0 ]
								}

							}
, 							{
								"patchline" : 								{
									"source" : [ "obj-41", 0 ],
									"destination" : [ "obj-3", 5 ],
									"hidden" : 0,
									"midpoints" : [ 2529.5, 361.0, 438.0, 361.0 ]
								}

							}
, 							{
								"patchline" : 								{
									"source" : [ "obj-40", 0 ],
									"destination" : [ "obj-3", 5 ],
									"hidden" : 0,
									"midpoints" : [ 2574.5, 361.0, 438.0, 361.0 ]
								}

							}
, 							{
								"patchline" : 								{
									"source" : [ "obj-1", 0 ],
									"destination" : [ "obj-22", 0 ],
									"hidden" : 0,
									"midpoints" : [ 24.5, 64.5, 189.5, 64.5 ]
								}

							}
, 							{
								"patchline" : 								{
									"source" : [ "obj-1", 0 ],
									"destination" : [ "obj-37", 0 ],
									"hidden" : 0,
									"midpoints" : [ 24.5, 64.5, 804.5, 64.5 ]
								}

							}
, 							{
								"patchline" : 								{
									"source" : [ "obj-1", 0 ],
									"destination" : [ "obj-180", 0 ],
									"hidden" : 0,
									"midpoints" : [ 24.5, 64.5, 1419.5, 64.5 ]
								}

							}
, 							{
								"patchline" : 								{
									"source" : [ "obj-1", 0 ],
									"destination" : [ "obj-52", 0 ],
									"hidden" : 0,
									"midpoints" : [ 24.5, 64.5, 2034.5, 64.5 ]
								}

							}
 ]
					}
,
					"saved_object_attributes" : 					{
						"globalpatchername" : "",
						"default_fontface" : 0,
						"fontname" : "Arial",
						"default_fontname" : "Arial",
						"default_fontsize" : 12.0,
						"fontface" : 0,
						"fontsize" : 12.0
					}

				}

			}
, 			{
				"box" : 				{
					"maxclass" : "comment",
					"text" : "randomize",
					"patching_rect" : [ 318.0, 75.0, 66.0, 20.0 ],
					"id" : "obj-179",
					"presentation" : 1,
					"numinlets" : 1,
					"fontname" : "Arial",
					"numoutlets" : 0,
					"presentation_rect" : [ 127.0, 3.0, 65.0, 20.0 ],
					"fontsize" : 12.0
				}

			}
, 			{
				"box" : 				{
					"maxclass" : "newobj",
					"text" : "% 32",
					"patching_rect" : [ 15.0, 615.0, 64.0, 20.0 ],
					"id" : "obj-130",
					"numinlets" : 2,
					"fontname" : "Arial",
					"numoutlets" : 1,
					"outlettype" : [ "int" ],
					"fontsize" : 12.0
				}

			}
, 			{
				"box" : 				{
					"maxclass" : "button",
					"patching_rect" : [ 225.0, 270.0, 20.0, 20.0 ],
					"id" : "obj-127",
					"numinlets" : 1,
					"numoutlets" : 1,
					"outlettype" : [ "bang" ]
				}

			}
, 			{
				"box" : 				{
					"maxclass" : "message",
					"text" : "clear",
					"patching_rect" : [ 270.0, 615.0, 37.0, 18.0 ],
					"id" : "obj-123",
					"numinlets" : 2,
					"fontname" : "Arial",
					"numoutlets" : 1,
					"outlettype" : [ "" ],
					"fontsize" : 12.0
				}

			}
, 			{
				"box" : 				{
					"maxclass" : "button",
					"patching_rect" : [ 300.0, 75.0, 20.0, 20.0 ],
					"id" : "obj-97",
					"presentation" : 1,
					"numinlets" : 1,
					"numoutlets" : 1,
					"presentation_rect" : [ 187.0, 3.0, 20.0, 20.0 ],
					"outlettype" : [ "bang" ]
				}

			}
, 			{
				"box" : 				{
					"maxclass" : "newobj",
					"text" : "pack 0 0",
					"patching_rect" : [ 300.0, 240.0, 105.0, 20.0 ],
					"id" : "obj-95",
					"numinlets" : 2,
					"fontname" : "Arial",
					"numoutlets" : 1,
					"outlettype" : [ "" ],
					"fontsize" : 12.0
				}

			}
, 			{
				"box" : 				{
					"maxclass" : "newobj",
					"text" : "uzi",
					"patching_rect" : [ 300.0, 135.0, 90.0, 20.0 ],
					"id" : "obj-94",
					"numinlets" : 2,
					"fontname" : "Arial",
					"numoutlets" : 3,
					"outlettype" : [ "bang", "bang", "int" ],
					"fontsize" : 12.0
				}

			}
, 			{
				"box" : 				{
					"maxclass" : "message",
					"text" : "set $1 $2",
					"patching_rect" : [ 300.0, 270.0, 60.0, 18.0 ],
					"id" : "obj-93",
					"numinlets" : 2,
					"fontname" : "Arial",
					"numoutlets" : 1,
					"outlettype" : [ "" ],
					"fontsize" : 12.0
				}

			}
, 			{
				"box" : 				{
					"maxclass" : "newobj",
					"text" : "random 13",
					"patching_rect" : [ 386.0, 180.0, 68.0, 20.0 ],
					"id" : "obj-90",
					"numinlets" : 2,
					"fontname" : "Arial",
					"numoutlets" : 1,
					"outlettype" : [ "int" ],
					"fontsize" : 12.0
				}

			}
, 			{
				"box" : 				{
					"maxclass" : "inlet",
					"patching_rect" : [ 15.0, 555.0, 25.0, 25.0 ],
					"id" : "obj-76",
					"numinlets" : 0,
					"numoutlets" : 1,
					"outlettype" : [ "" ],
					"comment" : "step"
				}

			}
, 			{
				"box" : 				{
					"maxclass" : "newobj",
					"text" : "counter 0 31",
					"patching_rect" : [ 150.0, 585.0, 77.0, 20.0 ],
					"id" : "obj-75",
					"numinlets" : 5,
					"fontname" : "Arial",
					"numoutlets" : 4,
					"outlettype" : [ "int", "", "", "int" ],
					"fontsize" : 12.0
				}

			}
, 			{
				"box" : 				{
					"maxclass" : "newobj",
					"text" : "pack",
					"patching_rect" : [ 150.0, 615.0, 105.0, 20.0 ],
					"id" : "obj-74",
					"numinlets" : 2,
					"fontname" : "Arial",
					"numoutlets" : 1,
					"outlettype" : [ "" ],
					"fontsize" : 12.0
				}

			}
, 			{
				"box" : 				{
					"maxclass" : "newobj",
					"text" : "iter",
					"patching_rect" : [ 150.0, 540.0, 27.0, 20.0 ],
					"id" : "obj-73",
					"numinlets" : 1,
					"fontname" : "Arial",
					"numoutlets" : 1,
					"outlettype" : [ "" ],
					"fontsize" : 12.0
				}

			}
, 			{
				"box" : 				{
					"maxclass" : "newobj",
					"text" : "funbuff",
					"patching_rect" : [ 15.0, 660.0, 47.0, 20.0 ],
					"id" : "obj-72",
					"numinlets" : 2,
					"fontname" : "Arial",
					"numoutlets" : 3,
					"outlettype" : [ "int", "int", "bang" ],
					"fontsize" : 12.0,
					"save" : [ "#N", "funbuff", 0, ";" ]
				}

			}
, 			{
				"box" : 				{
					"maxclass" : "inlet",
					"patching_rect" : [ 60.0, 15.0, 25.0, 25.0 ],
					"id" : "obj-12",
					"numinlets" : 0,
					"numoutlets" : 1,
					"outlettype" : [ "" ],
					"comment" : "num sliders"
				}

			}
, 			{
				"box" : 				{
					"maxclass" : "message",
					"text" : "size $1",
					"patching_rect" : [ 165.0, 270.0, 49.0, 18.0 ],
					"id" : "obj-7",
					"numinlets" : 2,
					"fontname" : "Arial",
					"numoutlets" : 1,
					"outlettype" : [ "" ],
					"fontsize" : 12.0
				}

			}
, 			{
				"box" : 				{
					"maxclass" : "comment",
					"text" : "sliders",
					"patching_rect" : [ 107.0, 90.0, 44.0, 20.0 ],
					"id" : "obj-5",
					"presentation" : 1,
					"numinlets" : 1,
					"fontname" : "Arial",
					"numoutlets" : 0,
					"presentation_rect" : [ 50.0, 3.0, 44.0, 20.0 ],
					"fontsize" : 12.0
				}

			}
, 			{
				"box" : 				{
					"maxclass" : "number",
					"patching_rect" : [ 60.0, 90.0, 50.0, 20.0 ],
					"id" : "obj-3",
					"presentation" : 1,
					"numinlets" : 1,
					"fontname" : "Arial",
					"numoutlets" : 2,
					"minimum" : 1,
					"presentation_rect" : [ 3.0, 3.0, 50.0, 20.0 ],
					"maximum" : 32,
					"outlettype" : [ "int", "bang" ],
					"fontsize" : 12.0
				}

			}
, 			{
				"box" : 				{
					"maxclass" : "multislider",
					"patching_rect" : [ 150.0, 315.0, 210.0, 180.0 ],
					"id" : "obj-1",
					"presentation" : 1,
					"spacing" : 2,
					"numinlets" : 1,
					"slidercolor" : [ 0.0, 0.529412, 0.756863, 1.0 ],
					"size" : 16,
					"numoutlets" : 2,
					"setminmax" : [ 0.0, 12.0 ],
					"settype" : 0,
					"bgcolor" : [ 0.807843, 0.807843, 0.807843, 0.447059 ],
					"presentation_rect" : [ 0.0, 45.0, 210.0, 180.0 ],
					"outlettype" : [ "", "" ],
					"setstyle" : 1
				}

			}
, 			{
				"box" : 				{
					"maxclass" : "comment",
					"text" : "12",
					"patching_rect" : [ 124.0, 320.0, 22.0, 20.0 ],
					"id" : "obj-71",
					"numinlets" : 1,
					"fontname" : "Arial",
					"numoutlets" : 0,
					"fontsize" : 12.0
				}

			}
, 			{
				"box" : 				{
					"maxclass" : "comment",
					"text" : "2",
					"patching_rect" : [ 127.0, 470.0, 18.0, 20.0 ],
					"id" : "obj-69",
					"numinlets" : 1,
					"fontname" : "Arial",
					"numoutlets" : 0,
					"fontsize" : 12.0
				}

			}
, 			{
				"box" : 				{
					"maxclass" : "comment",
					"text" : "11",
					"patching_rect" : [ 124.0, 335.0, 21.0, 20.0 ],
					"id" : "obj-67",
					"numinlets" : 1,
					"fontname" : "Arial",
					"numoutlets" : 0,
					"fontsize" : 12.0
				}

			}
, 			{
				"box" : 				{
					"maxclass" : "comment",
					"text" : "10",
					"patching_rect" : [ 124.0, 350.0, 22.0, 20.0 ],
					"id" : "obj-66",
					"numinlets" : 1,
					"fontname" : "Arial",
					"numoutlets" : 0,
					"fontsize" : 12.0
				}

			}
, 			{
				"box" : 				{
					"maxclass" : "comment",
					"text" : "9",
					"patching_rect" : [ 127.0, 365.0, 18.0, 20.0 ],
					"id" : "obj-65",
					"numinlets" : 1,
					"fontname" : "Arial",
					"numoutlets" : 0,
					"fontsize" : 12.0
				}

			}
, 			{
				"box" : 				{
					"maxclass" : "comment",
					"text" : "8",
					"patching_rect" : [ 127.0, 380.0, 18.0, 20.0 ],
					"id" : "obj-64",
					"numinlets" : 1,
					"fontname" : "Arial",
					"numoutlets" : 0,
					"fontsize" : 12.0
				}

			}
, 			{
				"box" : 				{
					"maxclass" : "comment",
					"text" : "7",
					"patching_rect" : [ 127.0, 395.0, 18.0, 20.0 ],
					"id" : "obj-63",
					"numinlets" : 1,
					"fontname" : "Arial",
					"numoutlets" : 0,
					"fontsize" : 12.0
				}

			}
, 			{
				"box" : 				{
					"maxclass" : "comment",
					"text" : "6",
					"patching_rect" : [ 127.0, 410.0, 18.0, 20.0 ],
					"id" : "obj-62",
					"numinlets" : 1,
					"fontname" : "Arial",
					"numoutlets" : 0,
					"fontsize" : 12.0
				}

			}
, 			{
				"box" : 				{
					"maxclass" : "comment",
					"text" : "5",
					"patching_rect" : [ 127.0, 425.0, 18.0, 20.0 ],
					"id" : "obj-61",
					"numinlets" : 1,
					"fontname" : "Arial",
					"numoutlets" : 0,
					"fontsize" : 12.0
				}

			}
, 			{
				"box" : 				{
					"maxclass" : "comment",
					"text" : "4",
					"patching_rect" : [ 127.0, 440.0, 18.0, 20.0 ],
					"id" : "obj-60",
					"numinlets" : 1,
					"fontname" : "Arial",
					"numoutlets" : 0,
					"fontsize" : 12.0
				}

			}
, 			{
				"box" : 				{
					"maxclass" : "comment",
					"text" : "3",
					"patching_rect" : [ 127.0, 455.0, 18.0, 20.0 ],
					"id" : "obj-59",
					"numinlets" : 1,
					"fontname" : "Arial",
					"numoutlets" : 0,
					"fontsize" : 12.0
				}

			}
, 			{
				"box" : 				{
					"maxclass" : "comment",
					"text" : "1",
					"patching_rect" : [ 127.0, 485.0, 18.0, 20.0 ],
					"id" : "obj-56",
					"numinlets" : 1,
					"fontname" : "Arial",
					"numoutlets" : 0,
					"fontsize" : 12.0
				}

			}
, 			{
				"box" : 				{
					"maxclass" : "comment",
					"text" : "0",
					"patching_rect" : [ 127.0, 500.0, 18.0, 20.0 ],
					"id" : "obj-54",
					"numinlets" : 1,
					"fontname" : "Arial",
					"numoutlets" : 0,
					"fontsize" : 12.0
				}

			}
, 			{
				"box" : 				{
					"maxclass" : "panel",
					"patching_rect" : [ 120.0, 502.0, 30.0, 15.0 ],
					"id" : "obj-39",
					"border" : 1,
					"numinlets" : 1,
					"numoutlets" : 0,
					"bgcolor" : [ 1.0, 1.0, 1.0, 0.0 ]
				}

			}
, 			{
				"box" : 				{
					"maxclass" : "panel",
					"patching_rect" : [ 120.0, 322.0, 30.0, 15.0 ],
					"id" : "obj-21",
					"border" : 1,
					"numinlets" : 1,
					"numoutlets" : 0,
					"bgcolor" : [ 1.0, 1.0, 1.0, 0.0 ]
				}

			}
, 			{
				"box" : 				{
					"maxclass" : "panel",
					"patching_rect" : [ 120.0, 337.0, 30.0, 15.0 ],
					"id" : "obj-22",
					"border" : 1,
					"numinlets" : 1,
					"numoutlets" : 0,
					"bgcolor" : [ 1.0, 1.0, 1.0, 0.0 ]
				}

			}
, 			{
				"box" : 				{
					"maxclass" : "panel",
					"patching_rect" : [ 120.0, 352.0, 30.0, 15.0 ],
					"id" : "obj-23",
					"border" : 1,
					"numinlets" : 1,
					"numoutlets" : 0,
					"bgcolor" : [ 1.0, 1.0, 1.0, 0.0 ]
				}

			}
, 			{
				"box" : 				{
					"maxclass" : "panel",
					"patching_rect" : [ 120.0, 367.0, 30.0, 15.0 ],
					"id" : "obj-24",
					"border" : 1,
					"numinlets" : 1,
					"numoutlets" : 0,
					"bgcolor" : [ 1.0, 1.0, 1.0, 0.0 ]
				}

			}
, 			{
				"box" : 				{
					"maxclass" : "panel",
					"patching_rect" : [ 120.0, 382.0, 30.0, 15.0 ],
					"id" : "obj-17",
					"border" : 1,
					"numinlets" : 1,
					"numoutlets" : 0,
					"bgcolor" : [ 1.0, 1.0, 1.0, 0.0 ]
				}

			}
, 			{
				"box" : 				{
					"maxclass" : "panel",
					"patching_rect" : [ 120.0, 397.0, 30.0, 15.0 ],
					"id" : "obj-18",
					"border" : 1,
					"numinlets" : 1,
					"numoutlets" : 0,
					"bgcolor" : [ 1.0, 1.0, 1.0, 0.0 ]
				}

			}
, 			{
				"box" : 				{
					"maxclass" : "panel",
					"patching_rect" : [ 120.0, 412.0, 30.0, 15.0 ],
					"id" : "obj-19",
					"border" : 1,
					"numinlets" : 1,
					"numoutlets" : 0,
					"bgcolor" : [ 1.0, 1.0, 1.0, 0.0 ]
				}

			}
, 			{
				"box" : 				{
					"maxclass" : "panel",
					"patching_rect" : [ 120.0, 427.0, 30.0, 15.0 ],
					"id" : "obj-20",
					"border" : 1,
					"numinlets" : 1,
					"numoutlets" : 0,
					"bgcolor" : [ 1.0, 1.0, 1.0, 0.0 ]
				}

			}
, 			{
				"box" : 				{
					"maxclass" : "panel",
					"patching_rect" : [ 120.0, 442.0, 30.0, 15.0 ],
					"id" : "obj-15",
					"border" : 1,
					"numinlets" : 1,
					"numoutlets" : 0,
					"bgcolor" : [ 1.0, 1.0, 1.0, 0.0 ]
				}

			}
, 			{
				"box" : 				{
					"maxclass" : "panel",
					"patching_rect" : [ 120.0, 457.0, 30.0, 15.0 ],
					"id" : "obj-16",
					"border" : 1,
					"numinlets" : 1,
					"numoutlets" : 0,
					"bgcolor" : [ 1.0, 1.0, 1.0, 0.0 ]
				}

			}
, 			{
				"box" : 				{
					"maxclass" : "panel",
					"patching_rect" : [ 120.0, 472.0, 30.0, 15.0 ],
					"id" : "obj-14",
					"border" : 1,
					"numinlets" : 1,
					"numoutlets" : 0,
					"bgcolor" : [ 1.0, 1.0, 1.0, 0.0 ]
				}

			}
, 			{
				"box" : 				{
					"maxclass" : "panel",
					"patching_rect" : [ 120.0, 487.0, 30.0, 15.0 ],
					"id" : "obj-13",
					"border" : 1,
					"numinlets" : 1,
					"numoutlets" : 0,
					"bgcolor" : [ 1.0, 1.0, 1.0, 0.0 ]
				}

			}
, 			{
				"box" : 				{
					"maxclass" : "panel",
					"patching_rect" : [ 150.0, 344.0, 240.0, 167.0 ],
					"id" : "obj-148",
					"presentation" : 1,
					"border" : 1,
					"numinlets" : 1,
					"numoutlets" : 0,
					"bgcolor" : [ 0.666667, 0.666667, 0.666667, 0.0 ],
					"presentation_rect" : [ 0.0, 59.0, 210.0, 167.0 ]
				}

			}
, 			{
				"box" : 				{
					"maxclass" : "panel",
					"patching_rect" : [ 150.0, 359.0, 240.0, 153.0 ],
					"id" : "obj-147",
					"presentation" : 1,
					"border" : 1,
					"numinlets" : 1,
					"numoutlets" : 0,
					"bgcolor" : [ 0.666667, 0.666667, 0.666667, 0.0 ],
					"presentation_rect" : [ 0.0, 74.0, 210.0, 151.0 ]
				}

			}
, 			{
				"box" : 				{
					"maxclass" : "panel",
					"patching_rect" : [ 150.0, 374.0, 241.0, 138.0 ],
					"id" : "obj-146",
					"presentation" : 1,
					"border" : 1,
					"numinlets" : 1,
					"numoutlets" : 0,
					"bgcolor" : [ 0.666667, 0.666667, 0.666667, 0.0 ],
					"presentation_rect" : [ 0.0, 89.0, 210.0, 137.0 ]
				}

			}
, 			{
				"box" : 				{
					"maxclass" : "panel",
					"patching_rect" : [ 150.0, 389.0, 241.0, 123.0 ],
					"id" : "obj-145",
					"presentation" : 1,
					"border" : 1,
					"numinlets" : 1,
					"numoutlets" : 0,
					"bgcolor" : [ 0.666667, 0.666667, 0.666667, 0.0 ],
					"presentation_rect" : [ 0.0, 104.0, 210.0, 122.0 ]
				}

			}
, 			{
				"box" : 				{
					"maxclass" : "panel",
					"patching_rect" : [ 150.0, 404.0, 240.0, 108.0 ],
					"id" : "obj-144",
					"presentation" : 1,
					"border" : 1,
					"numinlets" : 1,
					"numoutlets" : 0,
					"bgcolor" : [ 0.666667, 0.666667, 0.666667, 0.0 ],
					"presentation_rect" : [ 0.0, 119.0, 210.0, 107.0 ]
				}

			}
, 			{
				"box" : 				{
					"maxclass" : "panel",
					"patching_rect" : [ 150.0, 419.0, 240.0, 94.0 ],
					"id" : "obj-143",
					"presentation" : 1,
					"border" : 1,
					"numinlets" : 1,
					"numoutlets" : 0,
					"bgcolor" : [ 0.666667, 0.666667, 0.666667, 0.0 ],
					"presentation_rect" : [ 0.0, 134.0, 210.0, 92.0 ]
				}

			}
, 			{
				"box" : 				{
					"maxclass" : "panel",
					"patching_rect" : [ 150.0, 434.0, 240.0, 79.0 ],
					"id" : "obj-142",
					"presentation" : 1,
					"border" : 1,
					"numinlets" : 1,
					"numoutlets" : 0,
					"bgcolor" : [ 0.666667, 0.666667, 0.666667, 0.0 ],
					"presentation_rect" : [ 0.0, 149.0, 210.0, 77.0 ]
				}

			}
, 			{
				"box" : 				{
					"maxclass" : "panel",
					"patching_rect" : [ 150.0, 449.0, 240.0, 63.0 ],
					"id" : "obj-141",
					"presentation" : 1,
					"border" : 1,
					"numinlets" : 1,
					"numoutlets" : 0,
					"bgcolor" : [ 0.666667, 0.666667, 0.666667, 0.0 ],
					"presentation_rect" : [ 0.0, 164.0, 210.0, 62.0 ]
				}

			}
, 			{
				"box" : 				{
					"maxclass" : "panel",
					"patching_rect" : [ 150.0, 464.0, 241.0, 48.0 ],
					"id" : "obj-140",
					"presentation" : 1,
					"border" : 1,
					"numinlets" : 1,
					"numoutlets" : 0,
					"bgcolor" : [ 0.666667, 0.666667, 0.666667, 0.0 ],
					"presentation_rect" : [ 0.0, 179.0, 210.0, 47.0 ]
				}

			}
, 			{
				"box" : 				{
					"maxclass" : "panel",
					"patching_rect" : [ 150.0, 479.0, 241.0, 33.0 ],
					"id" : "obj-138",
					"presentation" : 1,
					"border" : 1,
					"numinlets" : 1,
					"numoutlets" : 0,
					"bgcolor" : [ 0.666667, 0.666667, 0.666667, 0.0 ],
					"presentation_rect" : [ 0.0, 194.0, 210.0, 31.0 ]
				}

			}
, 			{
				"box" : 				{
					"maxclass" : "panel",
					"patching_rect" : [ 150.0, 494.0, 240.0, 18.0 ],
					"id" : "obj-139",
					"presentation" : 1,
					"border" : 1,
					"numinlets" : 1,
					"numoutlets" : 0,
					"bgcolor" : [ 0.666667, 0.666667, 0.666667, 0.0 ],
					"presentation_rect" : [ 0.0, 209.0, 210.0, 17.0 ]
				}

			}
, 			{
				"box" : 				{
					"maxclass" : "panel",
					"patching_rect" : [ 150.0, 507.0, 240.0, 4.0 ],
					"id" : "obj-137",
					"presentation" : 1,
					"border" : 1,
					"numinlets" : 1,
					"numoutlets" : 0,
					"bgcolor" : [ 0.666667, 0.666667, 0.666667, 0.0 ],
					"presentation_rect" : [ 0.0, 222.0, 210.0, 4.0 ]
				}

			}
, 			{
				"box" : 				{
					"maxclass" : "panel",
					"patching_rect" : [ 600.0, 15.0, 375.0, 285.0 ],
					"id" : "obj-225",
					"presentation" : 1,
					"border" : 2,
					"numinlets" : 1,
					"numoutlets" : 0,
					"bordercolor" : [ 0.537255, 0.537255, 0.537255, 1.0 ],
					"bgcolor" : [ 1.0, 1.0, 1.0, 1.0 ],
					"presentation_rect" : [ 0.0, 0.0, 210.0, 225.0 ]
				}

			}
 ],
		"lines" : [ 			{
				"patchline" : 				{
					"source" : [ "obj-9", 0 ],
					"destination" : [ "obj-3", 0 ],
					"hidden" : 0,
					"midpoints" : [ 114.5, 76.0, 69.5, 76.0 ]
				}

			}
, 			{
				"patchline" : 				{
					"source" : [ "obj-4", 0 ],
					"destination" : [ "obj-9", 0 ],
					"hidden" : 0,
					"midpoints" : [  ]
				}

			}
, 			{
				"patchline" : 				{
					"source" : [ "obj-3", 0 ],
					"destination" : [ "obj-7", 0 ],
					"hidden" : 0,
					"midpoints" : [ 69.5, 121.5, 174.5, 121.5 ]
				}

			}
, 			{
				"patchline" : 				{
					"source" : [ "obj-7", 0 ],
					"destination" : [ "obj-1", 0 ],
					"hidden" : 0,
					"midpoints" : [ 174.5, 301.0, 159.5, 301.0 ]
				}

			}
, 			{
				"patchline" : 				{
					"source" : [ "obj-12", 0 ],
					"destination" : [ "obj-3", 0 ],
					"hidden" : 0,
					"midpoints" : [  ]
				}

			}
, 			{
				"patchline" : 				{
					"source" : [ "obj-1", 0 ],
					"destination" : [ "obj-73", 0 ],
					"hidden" : 0,
					"midpoints" : [  ]
				}

			}
, 			{
				"patchline" : 				{
					"source" : [ "obj-73", 0 ],
					"destination" : [ "obj-74", 1 ],
					"hidden" : 0,
					"midpoints" : [ 159.5, 570.5, 245.5, 570.5 ]
				}

			}
, 			{
				"patchline" : 				{
					"source" : [ "obj-74", 0 ],
					"destination" : [ "obj-72", 0 ],
					"hidden" : 0,
					"midpoints" : [ 159.5, 646.0, 24.5, 646.0 ]
				}

			}
, 			{
				"patchline" : 				{
					"source" : [ "obj-3", 0 ],
					"destination" : [ "obj-94", 1 ],
					"hidden" : 0,
					"midpoints" : [ 69.5, 121.0, 380.5, 121.0 ]
				}

			}
, 			{
				"patchline" : 				{
					"source" : [ "obj-94", 0 ],
					"destination" : [ "obj-90", 0 ],
					"hidden" : 0,
					"midpoints" : [ 309.5, 166.0, 395.5, 166.0 ]
				}

			}
, 			{
				"patchline" : 				{
					"source" : [ "obj-95", 0 ],
					"destination" : [ "obj-93", 0 ],
					"hidden" : 0,
					"midpoints" : [  ]
				}

			}
, 			{
				"patchline" : 				{
					"source" : [ "obj-93", 0 ],
					"destination" : [ "obj-1", 0 ],
					"hidden" : 0,
					"midpoints" : [ 309.5, 301.5, 159.5, 301.5 ]
				}

			}
, 			{
				"patchline" : 				{
					"source" : [ "obj-97", 0 ],
					"destination" : [ "obj-94", 0 ],
					"hidden" : 0,
					"midpoints" : [  ]
				}

			}
, 			{
				"patchline" : 				{
					"source" : [ "obj-94", 2 ],
					"destination" : [ "obj-95", 0 ],
					"hidden" : 0,
					"midpoints" : [ 380.5, 194.0, 309.5, 194.0 ]
				}

			}
, 			{
				"patchline" : 				{
					"source" : [ "obj-1", 0 ],
					"destination" : [ "obj-123", 0 ],
					"hidden" : 0,
					"midpoints" : [ 159.5, 526.0, 279.5, 526.0 ]
				}

			}
, 			{
				"patchline" : 				{
					"source" : [ "obj-123", 0 ],
					"destination" : [ "obj-72", 0 ],
					"hidden" : 0,
					"midpoints" : [ 279.5, 646.0, 24.5, 646.0 ]
				}

			}
, 			{
				"patchline" : 				{
					"source" : [ "obj-127", 0 ],
					"destination" : [ "obj-1", 0 ],
					"hidden" : 0,
					"midpoints" : [ 234.5, 301.5, 159.5, 301.5 ]
				}

			}
, 			{
				"patchline" : 				{
					"source" : [ "obj-3", 0 ],
					"destination" : [ "obj-127", 0 ],
					"hidden" : 0,
					"midpoints" : [ 69.5, 121.5, 234.5, 121.5 ]
				}

			}
, 			{
				"patchline" : 				{
					"source" : [ "obj-3", 0 ],
					"destination" : [ "obj-130", 1 ],
					"hidden" : 0,
					"midpoints" : [  ]
				}

			}
, 			{
				"patchline" : 				{
					"source" : [ "obj-130", 0 ],
					"destination" : [ "obj-72", 0 ],
					"hidden" : 0,
					"midpoints" : [  ]
				}

			}
, 			{
				"patchline" : 				{
					"source" : [ "obj-76", 0 ],
					"destination" : [ "obj-130", 0 ],
					"hidden" : 0,
					"midpoints" : [  ]
				}

			}
, 			{
				"patchline" : 				{
					"source" : [ "obj-90", 0 ],
					"destination" : [ "obj-209", 0 ],
					"hidden" : 0,
					"midpoints" : [  ]
				}

			}
, 			{
				"patchline" : 				{
					"source" : [ "obj-209", 0 ],
					"destination" : [ "obj-95", 1 ],
					"hidden" : 0,
					"midpoints" : [  ]
				}

			}
, 			{
				"patchline" : 				{
					"source" : [ "obj-210", 0 ],
					"destination" : [ "obj-213", 0 ],
					"hidden" : 0,
					"midpoints" : [  ]
				}

			}
, 			{
				"patchline" : 				{
					"source" : [ "obj-213", 0 ],
					"destination" : [ "obj-209", 1 ],
					"hidden" : 0,
					"midpoints" : [  ]
				}

			}
, 			{
				"patchline" : 				{
					"source" : [ "obj-72", 0 ],
					"destination" : [ "obj-224", 0 ],
					"hidden" : 0,
					"midpoints" : [  ]
				}

			}
, 			{
				"patchline" : 				{
					"source" : [ "obj-2", 0 ],
					"destination" : [ "obj-6", 0 ],
					"hidden" : 0,
					"midpoints" : [  ]
				}

			}
, 			{
				"patchline" : 				{
					"source" : [ "obj-6", 0 ],
					"destination" : [ "obj-210", 0 ],
					"hidden" : 0,
					"midpoints" : [  ]
				}

			}
, 			{
				"patchline" : 				{
					"source" : [ "obj-94", 1 ],
					"destination" : [ "obj-1", 0 ],
					"hidden" : 0,
					"midpoints" : [ 345.0, 220.5, 159.5, 220.5 ]
				}

			}
, 			{
				"patchline" : 				{
					"source" : [ "obj-75", 0 ],
					"destination" : [ "obj-74", 0 ],
					"hidden" : 0,
					"midpoints" : [  ]
				}

			}
, 			{
				"patchline" : 				{
					"source" : [ "obj-73", 0 ],
					"destination" : [ "obj-75", 0 ],
					"hidden" : 0,
					"midpoints" : [ 159.5, 571.0, 159.5, 571.0 ]
				}

			}
, 			{
				"patchline" : 				{
					"source" : [ "obj-3", 0 ],
					"destination" : [ "obj-8", 0 ],
					"hidden" : 0,
					"midpoints" : [ 69.5, 121.0, 579.5, 121.0 ]
				}

			}
, 			{
				"patchline" : 				{
					"source" : [ "obj-8", 0 ],
					"destination" : [ "obj-75", 4 ],
					"hidden" : 0,
					"midpoints" : [ 579.5, 556.5, 217.5, 556.5 ]
				}

			}
, 			{
				"patchline" : 				{
					"source" : [ "obj-10", 0 ],
					"destination" : [ "obj-97", 0 ],
					"hidden" : 0,
					"midpoints" : [  ]
				}

			}
 ]
	}

}
